<?xml version="1.0" encoding="UTF-8"?>
<svg id="Layer_2" data-name="Layer 2" xmlns="http://www.w3.org/2000/svg" viewBox="0 0 6300 861.21">
  <defs>
    <style>
      .cls-1 {
        fill: #3f3f63;
      }
    </style>
  </defs>
  <g id="artwork">
    <g>
      <path class="cls-1" d="m5707.94,579.84c-3.95,0-7.95-.47-11.95-1.49-32.63-8.34-46.11-47.79-39.88-79.54,4.06-20.71,14.03-39.25,23.67-57.17,4.25-7.9,8.64-16.06,12.38-24.19,6.67-14.48,20.25-50.93,2.37-76.73-6.81-9.82-18.35-16.42-31.66-18.11-13.31-1.69-26.13,1.82-35.18,9.64-15.66,13.53-20.69,36.2-23.54,56.59-.36,2.59-.71,5.19-1.05,7.81-2.72,20.55-5.53,41.8-17.13,59.89-8.22,12.84-22.31,22.73-36.76,25.81-11.35,2.42-22.03.64-30.88-5.16-14.84-9.73-19.62-26.43-24.25-42.57-3.97-13.85-7.72-26.93-17.39-34.31-11.63-8.88-29.29-6.09-40.72,1.26-14.1,9.06-23.31,24.68-29.76,37.29-3.79,7.4-7.34,15.16-10.78,22.66-6.07,13.25-12.35,26.95-20.32,39.69-10.63,16.99-28.91,38.86-55.67,46.56-23.52,6.77-55.38-.95-68-25.58-10.63-20.75-4.72-44.04,1-66.57,5.68-22.36,11.04-43.49-1.32-58.32-11.71-14.04-34.12-13.8-49.98-7.62-13.27,5.16-24.81,13.72-37.03,22.79-4.6,3.41-9.35,6.94-14.18,10.25-39.84,27.3-71.81,41.75-106.89,48.31-33.26,6.22-68.51,5.19-118.48,2.92-3.86-.18-6.85-3.45-6.67-7.31s3.46-6.89,7.31-6.67c97.12,4.42,139.62,4.11,216.82-48.8,4.62-3.16,9.26-6.61,13.76-9.94,12.42-9.22,25.27-18.75,40.29-24.59,21.07-8.2,49.59-7.76,65.81,11.71,16.94,20.32,10.43,45.95,4.14,70.73-5.31,20.92-10.33,40.69-2.11,56.73,9.33,18.21,33.6,23.71,51.67,18.51,22.49-6.47,38.34-25.61,47.67-40.53,7.49-11.98,13.58-25.26,19.46-38.1,3.5-7.64,7.12-15.54,11.05-23.21,7.25-14.17,17.75-31.82,34.66-42.69,18.41-11.83,41.76-12.08,56.79-.61,13.35,10.19,17.93,26.15,22.35,41.59,4.1,14.32,7.98,27.84,18.47,34.72,7.14,4.68,14.97,4.31,20.28,3.17,10.93-2.33,21.62-9.87,27.9-19.67,9.91-15.47,12.52-35.15,15.03-54.18.35-2.65.7-5.29,1.07-7.91,3.21-22.97,9.08-48.69,28.25-65.25,12.05-10.41,28.85-15.12,46.09-12.93,17.24,2.19,32.34,10.94,41.4,24.02,15.49,22.34,15.06,55.35-1.16,90.56-3.92,8.52-8.42,16.88-12.77,24.96-9.57,17.79-18.61,34.59-22.26,53.23-5.02,25.62,5.67,57.17,29.61,63.29,18.19,4.65,37.11-6.69,48.75-18.86l.42-.44c43.76-45.72,81.56-85.2,147.01-99.19,67.05-14.33,135.99-13.13,202.66-11.96,9.52.17,19.36.34,29.02.46,58.53.75,111.69,3.15,162.52,7.36,3.85.32,6.72,3.7,6.4,7.55-.32,3.85-3.67,6.72-7.55,6.4-50.5-4.18-103.34-6.58-161.54-7.32-9.69-.12-19.55-.29-29.08-.46-65.89-1.15-134.01-2.34-199.49,11.66-61.25,13.09-97.66,51.13-139.83,95.18l-.42.44c-11.98,12.52-30.6,24.23-50.37,24.23Z"/>
      <path class="cls-1" d="m3176.99,658.25c-2.54,0-5.08-.06-7.61-.19-33.22-1.65-66.79-16.33-92.1-40.27-26.62-25.19-40.93-57.08-40.3-89.81.34-17.73,4.94-35.21,13.45-51.59-80.53-2.13-149.87.54-244.75,6.15-3.86.24-7.17-2.71-7.4-6.57-.23-3.86,2.71-7.17,6.57-7.4,98.38-5.83,169.46-8.49,253.85-5.95,2.35-3.43,4.87-6.79,7.58-10.08,17.5-21.28,41.43-37.82,67.38-46.57,23.38-7.89,48.92-10.58,75.38-8.21,8-26.24,29.32-50.33,58.63-52.44,17.14-1.24,34.42,6.13,47.45,20.2,14.64,15.82,21.61,37.08,18.64,56.87-1.05,6.98-3.18,13.83-6.29,20.35,1,.84,1.97,1.69,2.91,2.54,15.92-10.53,33.83-17.96,52.39-21.71,4.8-11.87,11.97-21.83,21.47-29.8,15.77-13.23,36.97-18.63,59.7-15.19,27.43,4.15,53.52,20.76,68.09,43.37,4.38,6.8,7.9,13.84,10.7,21,7.95.23,15.59,2.25,22.32,6.04,13.28,7.48,21.63,19.76,29.7,31.65,3.5,5.15,6.8,10.01,10.47,14.49,1.25,1.53,2.47,3.01,3.67,4.46,14.12-4.64,30.68-3.7,41.8,7.33,9.31,9.23,11.55,22.16,9.11,34.11,11.04,3.38,24.1,4.36,41.48,3.46,26.25-1.35,36.26-14.72,50.13-33.21,4.57-6.09,9.29-12.39,15-18.72,33.46-37.08,91.78-30.15,143.24-24.04,18.24,2.17,35.47,4.22,49.99,4.07,33.12-.33,59.26-1.64,84.46-4.78-.9-1.16-1.77-2.34-2.61-3.53-13.84-19.57-19.29-41.89-15.33-62.85,4.25-22.49,18.28-41.83,40.57-55.94,19.67-12.44,43.95-19.6,68.38-20.16,22.92-.53,42.25,3.82,57.4,12.9,19.2,11.52,31.44,31.71,31.17,51.46-.24,18.08-9.29,33.95-26.9,47.16-16.45,12.35-36.97,19.67-51.29,23.64-27.19,7.53-49.82,13.01-71.54,16.94,7.76,5.75,16.24,10.27,24.84,13.21,31.95,10.9,71.18,7.72,116.6-9.44,16.61-6.28,33.16-13.89,49.15-21.25,11.09-5.1,22.38-10.29,33.88-15.14,14.75-33.21,44.74-60.49,80.95-72.3,40.58-13.24,88.3-7.45,127.67,15.5,17.83,10.39,33.56,23.81,48.67,37.15,8.94-24.76,24.49-45.8,44.88-59.7,16.4-11.18,36.61-17.33,56.97-17.33.17,0,.34,0,.51,0,21.33.11,41.31,7.07,56.27,19.61,16.16,13.54,26.34,35.08,27.23,57.61.83,20.89-6.13,39.68-19.59,52.91-15.19,14.93-36.33,21.97-61.13,20.37-21.26-1.38-43.67-9.03-63.08-21.56-12.23-7.89-23.54-17.1-34.4-26.51-1.09,5.84-1.8,11.81-2.08,17.84-1.64,34.47,13.91,74.6,46.79,84.6,27.83,8.46,59.71,1.17,100.31-22.96,15-8.91,28.13-17.16,39.71-24.43,60.25-37.82,87.75-55.08,178.06-45.26,3.84.42,6.62,3.87,6.2,7.72-.42,3.84-3.87,6.62-7.72,6.2-85.48-9.3-109.96,6.07-169.1,43.2-11.66,7.32-24.87,15.61-40.01,24.61-44.23,26.29-79.67,34.01-111.54,24.32-18.7-5.69-34.02-19.27-44.3-39.28-8.99-17.49-13.39-38.58-12.4-59.38.45-9.54,1.8-18.86,3.97-27.82,0,0,0,0,0,0-16.1-14.26-32.74-29.02-51.28-39.83-35.97-20.97-79.43-26.31-116.28-14.29-27.39,8.94-50.79,27.68-65.33,51.1,3.88-1.42,7.79-2.77,11.71-4.05,23.84-7.72,47.68-10.96,68.95-9.36,25.88,1.94,47.01,10.79,62.79,26.28,15.61,15.32,24.39,37.87,24.1,61.86-.29,23.68-9.31,46.28-24.76,62.01-15.36,15.65-36.86,25.29-60.54,27.16-23.31,1.84-46.25-3.99-64.62-16.4-17.95-12.12-32.23-30.81-40.22-52.6-7.83-21.36-9.38-44.91-4.36-66.31.21-.91.44-1.81.67-2.71-7.32,3.24-14.56,6.58-21.72,9.87-16.21,7.46-32.98,15.17-50.05,21.62-48.54,18.35-90.96,21.58-126.07,9.6-14.1-4.81-27.5-13.02-38.66-23.47-28.77,4.15-57.79,5.79-95.82,6.17-15.42.14-33.08-1.94-51.78-4.17-48.08-5.71-102.58-12.19-131.19,19.51-5.28,5.85-9.81,11.89-14.19,17.74-14.31,19.08-27.82,37.11-60.61,38.8-19.53,1-34.43-.29-47.04-4.23-1.37,2.51-2.96,4.85-4.73,6.97-10.08,12.08-26.07,20.04-47.52,23.65-5.53.93-11.03,1.53-16.46,1.81,1.61,8.16,2.31,16.52,2.01,24.91-.45,12.7-3.63,21.98-9.73,28.36-6.94,7.28-17.08,9.92-27.81,7.25-14.08-3.5-26.56-15.35-30.36-28.82-.97-3.44-1.58-6.88-1.89-10.3-8.67,6.68-17.72,12.84-27.05,18.41-31.95,19.07-79.37,31.14-107.88,2.39-2.28-2.3-4.32-4.77-6.12-7.41-24.2.59-49.93-5.78-69.63-19.9-13,12.41-27.31,23.17-42.52,31.92-28.3,16.27-58.67,24.77-88.32,24.77Zm-110.59-181.38c-9.51,15.98-15.07,33.64-15.42,51.38-1.13,58.5,54.52,112.63,119.09,115.83,44.57,2.22,90.5-16.95,127.08-51.56-7.05-7.08-12.83-15.5-16.79-25.34-3.79-9.4-5.51-19.06-5.52-28.69-12.99-7.67-25-18.83-34.47-31.11-3.68-4.77-7.07-9.51-10.17-14.23-2.92-.1-5.83-.24-8.71-.38,10.34,9.29,17.53,20.73,20.4,33.06,6.34,27.23-10.75,57.78-37.32,66.72-12.87,4.33-27.31,3.54-40.68-2.23-13.35-5.75-23.86-15.71-29.59-28.02-11.85-25.46-2.12-58.39,21.7-73.41,3.55-2.24,7.22-4.04,10.97-5.48-11-1.92-22.7-2.77-35.16-3.5-23.06-1.36-44.68-2.37-65.42-3.07Zm466.2,119.61c-.62,6.19-.38,12.27,1.27,18.09,2.46,8.72,10.98,16.73,20.26,19.03,4.11,1.02,9.92,1.27,14.31-3.33,3.62-3.8,5.54-10.08,5.87-19.2.29-8.19-.57-16.42-2.43-24.44-8.55-.48-16.84-1.78-24.69-3.89-4.69,4.74-9.56,9.32-14.58,13.73Zm-138.21,23.4c22.96,21.87,62.62,10.85,89.88-5.42,12.3-7.34,24.07-15.76,35.11-25.08.91-5.49,2.28-10.93,3.83-16.33-3.12-1.77-6.12-3.7-8.96-5.8-.73-.54-1.45-1.09-2.16-1.65-9.68,17.2-25.98,31.22-46.75,33-6.1.53-11.94,0-17.46-1.39-1.58,1.22-3.21,2.4-4.9,3.54-13.42,9.12-29.55,15.61-46.66,18.77-.64.12-1.28.23-1.93.34Zm-76.66-28.36c15.08,10.24,34.19,15.4,52.87,15.97-3.01-9.25-3.79-19.63-2.19-30.64,2.35-16.21,9.67-32.21,20.36-44.84-.87-2.27-1.68-4.54-2.44-6.8-1.79-5.33-3.66-11.53-5.32-18.34-.85.79-1.67,1.59-2.46,2.39-10.89,11.02-19.17,24.09-27.93,37.92-3.8,6-7.72,12.19-11.86,18.17-6.41,9.25-13.45,18.01-21.04,26.18Zm77.45-44.88c-12.49,17.97-17.81,42.02-9.81,60.33,2.85-.29,5.66-.69,8.41-1.2,12.49-2.31,26.42-7.18,38.77-14.97-15.71-9.35-28.3-25.89-37.37-44.16Zm913.95-91.14c-1.65,4.3-3.01,8.7-4.05,13.17-9.14,38.98,7.17,82.77,38.78,104.12,32.67,22.07,80.82,18.05,107.33-8.96,27.44-27.96,27.84-77.57.84-104.08-24.78-24.33-68.75-29.41-117.61-13.59-8.5,2.75-16.94,5.93-25.29,9.34Zm-835.11,52.45c7.71,17.39,8.21,37.54,1.25,54.43-3.31,8.03-8.07,15.58-14.08,22.43.98-.01,1.96-.06,2.96-.14,16.71-1.44,29.97-14.21,37.36-29.06-12-13.55-19.16-30.6-20.21-47.51-2.43-.13-4.86-.18-7.29-.14Zm-184.83,37.36c.61,5.61,1.96,11.18,4.16,16.63,3.22,7.98,7.9,14.85,13.63,20.66,7.24-7.78,14.03-16.22,20.28-25.24,3.97-5.74,7.82-11.81,11.54-17.69.67-1.07,1.35-2.13,2.03-3.2-1.83,1.75-3.84,3.36-6.03,4.82-14.17,9.42-30.16,9.57-45.61,4.02Zm115.98-10.27c9.06,20.36,22.6,39.02,39.72,46.41,7.35-6.7,13.48-14.8,17.43-24.41,5.68-13.8,4.93-31.15-1.98-45.3-.42-.85-.85-1.69-1.31-2.5-20.08,3.16-39.3,12.01-53.87,25.8Zm-209.48-42.83c-11.73.47-22.66,2.53-32.21,8.55-17.76,11.2-25.31,36.68-16.48,55.65,8.89,19.1,33.21,29.58,53.11,22.88,19.69-6.62,32.84-30.12,28.14-50.28-3.49-15-15.52-28.49-32.57-36.8Zm377.78,59.86c3.71,6.6,6.79,13.54,9.17,20.73,5.83-.17,11.78-.75,17.78-1.76,18.06-3.04,31.22-9.38,39.1-18.82.88-1.05,1.69-2.2,2.43-3.41-12.99-6.84-24.08-17.38-36.9-32.16-.44.27-.86.54-1.28.83-10.36,7-17.91,17.46-25.89,28.54-1.46,2.03-2.92,4.05-4.4,6.05Zm-15.23,18.86c2.99.57,6.05,1.01,9.15,1.32-1.06-2.68-2.23-5.33-3.51-7.92-1.85,2.23-3.73,4.43-5.65,6.6Zm-18.14-5.26c.98.4,1.98.78,2.98,1.14,4.63-4.98,9.06-10.12,13.27-15.41-2.8-4.13-5.89-8.06-9.23-11.74-1.57,7.34-3.35,13.98-5.07,19.67-.63,2.1-1.29,4.22-1.95,6.34Zm-22.04-13.33c1.44,1.27,2.95,2.49,4.51,3.64,1.57,1.16,3.19,2.25,4.87,3.29.41-1.33.82-2.66,1.22-3.98,2.25-7.46,4.62-16.67,6.42-26.96-4.1-3.26-8.44-6.19-12.99-8.73.53,7.42.15,14.87-1.22,22.2-.66,3.5-1.6,7.04-2.8,10.54Zm-22.46-42.45c1.17,10.36,5.13,20.8,11.39,29.91.04-.2.08-.39.11-.59,1.62-8.63,1.61-17.48.17-26.19-3.81-1.29-7.72-2.34-11.68-3.13Zm54.52,12.74c5.6,5.11,10.69,10.77,15.21,16.86.4-.55.8-1.11,1.2-1.66,8.35-11.58,16.99-23.55,29.41-31.95,0,0,.02-.01.03-.02-.51-.62-1.02-1.25-1.54-1.88-4.07-4.97-7.71-10.32-11.23-15.5-7.49-11.03-14.57-21.45-24.99-27.32-3.35-1.89-6.99-3.16-10.81-3.81,5.79,22.48,5.44,45.39,2.72,65.27Zm68.94-11.23c9.58,10.71,18.03,18.51,27.44,23.86.71-6.84-.87-13.71-5.63-18.42-5.48-5.43-13.72-6.8-21.81-5.44Zm-329.77,18.74c12.75,5.82,26.19,7.19,37.78-.51,16.84-11.2,18.35-37.32,9.2-54.69-2.05-3.89-4.54-7.61-7.48-11.18-20.25,16.33-36.56,40.99-39.49,66.38Zm-42.06-36.97c1.36,1.88,2.78,3.77,4.24,5.66,6.29,8.15,15.05,16.94,24.88,23.81,3-16.11,10.35-31.67,20.29-45.25-12.42,8.18-26.73,13.47-41.28,15.13-2.69.31-5.41.51-8.12.64Zm146.1,4.2c2.07,10.03,4.59,18.3,6.29,23.37.04.12.08.24.12.37,14.12-12.05,31.2-20.31,49.22-24.39-4.2-3.6-8.98-6.2-14.16-7.64-14.43-4.02-29.26.6-41.47,8.3Zm-53.12-41.76c3.28,4.07,6.09,8.34,8.45,12.81,7.85,14.91,9.73,34.84,3.3,51.26,5.02-7.11,10.45-13.99,16.66-20.28,2.78-2.81,5.87-5.58,9.23-8.2-1.83-11.22-2.77-23.39-1.96-35.7.38-5.76,1.13-11.25,2.23-16.46-13.16,3.46-26.03,9.01-37.9,16.55Zm179.09,47.04c.15.07.3.13.46.2,6.13,2.67,11.97,5.89,17.46,9.61,1.63-17.26,1.08-36.31-4.23-54.73-2.35.49-4.72,1.17-7.09,2.07-7.48,2.82-14.19,7.48-19.35,13.21,5.76,9.27,10.1,19.3,12.76,29.64Zm-23.47-7.04c2.41.44,4.82.96,7.2,1.56-1.36-3.67-2.97-7.26-4.81-10.77-.11.29-.22.58-.32.88-.95,2.7-1.63,5.48-2.07,8.33Zm-71.93-22.01c4.84,0,9.75.62,14.65,1.99,10.69,2.98,20.05,9.41,27.23,18.56,5.36-.43,10.75-.5,16.11-.19.58-3.85,1.5-7.63,2.79-11.31,1.22-3.48,2.81-6.83,4.72-10.02-10.01-13.06-23.5-23.82-39.29-30.25-17.39-7.08-37.1-9.08-56.78-6.38-4.41,15.22-4.31,31.85-2.47,46.63,10.02-5.43,21.34-9.04,33.03-9.04Zm1143.3-38.32c12.14,10.68,24.71,21.32,38.18,30.01,32.95,21.26,80.22,29.1,106.8,2.97,10.61-10.43,16.08-25.48,15.41-42.38-.74-18.65-9.05-36.39-22.23-47.44-25.32-21.22-66.96-21.84-96.87-1.45-19.06,12.99-33.62,33.97-41.29,58.29Zm-1329.17,44.05c5.36.03,10.64-.13,15.73-.71,22.76-2.6,43.26-15.13,55.36-32.2-6.68-4.5-14.42-8.79-23.34-12.95-21.97-10.26-44.15-17.05-65.76-20.31-.19,1.56-.32,3.11-.39,4.66-.83,19.28,5.35,39.91,18.39,61.52Zm-36.33-1.23c6.37,0,12.76.31,19.1.62.27.01.53.03.8.04-11.44-21.26-16.79-41.87-15.95-61.55.08-1.88.24-3.77.47-5.67-23.92-1.94-46.93.59-67.97,7.69-25.06,8.45-46.81,24.33-62.32,43.97,18.11.68,36.92,1.59,56.81,2.76,23.24,1.37,44.07,3.15,63.66,11.2.77.32,1.53.64,2.29.97,1.03-.02,2.07-.03,3.1-.03Zm937.1-138.84c-1.11,0-2.23.01-3.37.04-40.55.92-87.81,23.91-95.51,64.7-4.3,22.8,5.16,44.84,20.64,61.45,24.78-3.93,49.9-9.82,81.19-18.49,20.27-5.62,67.46-22.46,67.93-57.5.2-14.85-9.37-30.26-24.37-39.26-12.12-7.27-27.76-10.95-46.52-10.95Zm-728.78,81.52c15.92,0,31.31,2.9,45.38,8.63,16.95,6.9,31.59,18.18,42.82,31.95,6.28-6.32,14.05-11.4,22.73-14.67,2.41-.91,4.85-1.65,7.29-2.24-2.2-5.1-4.83-10.1-7.96-14.94-12.46-19.33-34.84-33.54-58.41-37.11-18.69-2.83-35.96,1.46-48.61,12.08-5.83,4.9-10.36,10.57-13.8,16.73,3.54-.28,7.06-.42,10.56-.42Zm-186.81-21.3c22.59,3.52,45.67,10.64,68.49,21.29,9.15,4.27,17.21,8.71,24.29,13.39,1.89-4.46,3.23-9.11,3.95-13.87,2.31-15.4-3.46-32.75-15.07-45.28-10.13-10.94-23.33-16.68-36.17-15.75-21.58,1.56-38.41,19.74-45.48,40.22Z"/>
      <path class="cls-1" d="m806.08,861.21c-6.19,0-12.37-.23-18.54-.68-44.12-3.25-84.23-18.2-115.99-43.22-32.43-25.54-56.01-64.57-64.68-107.08-.42-2.06-.8-4.11-1.15-6.17-4.19-1.28-8.34-2.74-12.45-4.35-13.32,11.44-28.3,19.98-45.82,23.31-21.75,4.15-44.77-1.42-64.83-15.67-23.23-16.5-39.49-42.52-43.49-69.6-5.29-35.79,7.01-74.76,32.79-107.26-4.16-12.64-7.53-25.8-10.09-39.46-1.17-6.26-2.17-12.58-2.99-18.95-110.73-26.63-257.08-45.08-436.43-18.99-3.83.56-7.38-2.09-7.94-5.92-.56-3.83,2.09-7.38,5.92-7.93,124.35-18.09,247.33-16.98,365.53,3.3,25.19,4.32,48.95,9.27,71.32,14.58-2.3-27.19-1.44-55.19,2.58-83.65,14.54-103,68.61-200.37,148.35-267.16,18-15.07,37.05-28.42,57.01-39.96,11.83-16.25,26.24-30.47,42.1-41.24,31.21-21.2,64.98-26.76,95.1-15.68,5.68,2.09,10.98,4.65,15.92,7.64,12.76-1.08,25.52-1.42,38.23-1.01,25.51.82,51.03,4.89,75.69,11.98,50.95-33.46,123.62-41.82,165.14,1.9,3.87,4.08,7.37,8.54,10.47,13.33,18.67-6.73,37.86-10.22,57.22-10.32,28.84-.17,57.33,7.46,83.81,22.2,13.39-3.89,27.35-3.96,39.91.44,16.14,5.65,28.87,17.63,36.81,34.65,7.3,15.65,10.11,34.57,8.38,53.36,5.26,10.09,9.7,20.56,13.23,31.27,12.21,37.04,15.43,77.44,9.57,120.07-3.97,28.94-12.28,58.69-24.31,87.43,28.88,2.25,67.19,10.41,113.93,20.38,54.5,11.62,116.28,24.78,184.15,33.17,118.38,14.63,215.25,23.98,302.29,28.9.43-36.3,15.92-72.3,43.97-97.95,6.22-5.68,13.02-10.79,20.27-15.31-4.78-22.64.45-44.24,14.97-60.48,17.66-19.77,46.75-28.6,88.95-26.99,51.07,1.95,102.83,20.58,140.56,48.99,10.39-3.11,21.23-4.64,32.09-4.35,17.33.47,34.83,6.25,49.48,16.13,16.53.08,33.04,4.57,44.98,11.7,8.49,5.07,15.68,11.52,21.34,19.01-.32-3.25-.46-6.53-.42-9.84.19-13.88,4.06-25.51,11.51-34.58,9.3-11.31,24.66-18.46,40.09-18.66,9.7-.14,19.69,2.3,29.77,7.22,15.19-1.79,30.65-.09,44.24,5.04,33.32,12.58,48.91,43.72,56.17,68.54.62-.19,1.23-.37,1.85-.55,19.04-5.5,40.41-5.41,60.17.26,20.37,5.85,37.63,17.31,48.59,32.26,11.49,15.67,15.9,36,12.12,55.78-.63,3.27-1.45,6.45-2.48,9.53,27.03,1.2,45.18.48,70.58-.53,12.23-.49,26.1-1.04,43.46-1.48,3.88-.08,7.08,2.95,7.18,6.82.1,3.86-2.95,7.08-6.82,7.18-17.27.45-31.08.99-43.27,1.48-27.52,1.09-46.66,1.85-77.36.26-5.52,9.34-13.15,17.23-22.5,23.1-6.65,4.17-13.7,7.21-20.99,9.32-.38,4.1-.95,8.16-1.69,12.12-6.81,36.45-25.34,60.19-50.84,65.14-22.27,4.32-42.76-6.48-57.94-21.32-14.92,14.83-34.9,25.47-56.71,29.12,2.83,9.74,4.86,19.69,5.64,29.91,1.54,20.27-2.86,36.5-13.1,48.25-11.8,13.55-35.58,21.31-53.41,10.22-7.56-4.7-12.63-11.96-14.67-20.99-2.56-11.36,0-24.5,6.85-35.16,2.47-3.84,5.29-7.37,8.34-10.71-22.3.44-42.97-6.96-58.9-17.93-6.21,6.88-13.67,13.32-22.02,19.01,1.02,13.54-4.46,27-15.54,38.06-14.55,14.52-35.97,22.12-55.9,19.82-15.21-1.75-29.34-8.41-40.71-18.27-1.53.21-3.06.42-4.6.61-36.51,4.53-74.19,2.54-108.96-5.76-19.09-4.55-35.81-12.8-48.26-23.11-21.87-1.84-38.92-10.41-49.53-24.94-6.15-8.42-9.39-18.46-9.81-28.9-3.54-2.31-6.99-4.76-10.35-7.33-22.4-17.18-39.06-38.96-48.17-62.98-4.02-10.6-6.53-21.59-7.6-32.67-87.71-4.92-185.27-14.32-304.6-29.06-68.48-8.46-130.57-21.7-185.35-33.37-49.1-10.46-88.76-18.92-117.03-20.44-2.26,4.86-4.63,9.69-7.11,14.46-.81,1.56-1.63,3.12-2.46,4.68,12.36,36.13,16.82,75.13,12.91,113.51-4.41,43.3-19.36,83.72-43.22,116.91-41.37,57.53-109.88,91.72-177.42,91.72-5.06,0-10.12-.19-15.16-.58-3.82,1.86-7.6,3.69-11.34,5.49-20.54,9.91-45.64,20.47-70.6,24.3-.12.12-.23.24-.35.36-30.51,31.64-64.41,55.88-100.77,72.04-33.08,14.71-68.99,22.31-104.85,22.31Zm-185.12-153.25c7.67,37.67,28.07,73.79,59.26,98.35,58.17,45.82,148.6,53.77,225.03,19.79,33.34-14.82,61.72-35.34,85.66-58.15-11.59-.28-22.85-2.54-33.29-7.57-37.93,16.31-77.24,23.75-105.76,27.13-35.94,4.26-82.7,6.91-125.76-10.62-20.39-8.3-39.19-21.87-52.92-38.21-7.21-8.58-12.97-17.78-17.15-27.34-11.65.15-23.43-.99-35.07-3.39Zm50.12,2.47c12.76,25.01,36.91,43.98,60.3,53.5,31.29,12.73,67.93,15.72,118.84,9.68,25.27-3,59.4-9.28,93.03-22.43-.25-.2-.49-.41-.74-.61-1.92-1.62-3.72-3.31-5.41-5.07-13.47.06-26.84-.7-40.03-2.27-13.69,6.5-27.54,11.65-41.28,15.32-38.77,10.37-74.47,8.65-106.11-5.12-22.52-9.8-42.46-25.96-58.43-46.64-.06.01-.11.03-.17.04-6.55,1.65-13.24,2.85-20.01,3.6Zm304.48,41.49c9.46,2.3,19.58,2.52,29.91,1.34,5.83-6.24,11.36-12.58,16.59-18.98-8.57,2.24-17.24,4.16-25.99,5.75-6.67,4.32-13.54,8.28-20.52,11.89Zm-269.95-49.55c13.93,16.85,30.82,30.02,49.66,38.22,33.96,14.78,74.59,13.84,116.12-1.51-13.34-2.73-26.41-6.31-39.11-10.76-30.34-10.61-58.82-27.23-82.53-47.92-2.44,1.03-4.89,2-7.37,2.92-11.56,7.96-23.94,14.39-36.77,19.05Zm339.53,25.01c-5.48,7.35-11.14,14.45-16.96,21.29,14.27-3.98,28.3-9.73,40.91-15.55-1.97-.42-3.93-.87-5.88-1.35-5.55-1.37-11.04-3.02-16.44-4.94-.54.19-1.08.37-1.62.55Zm-86.92,17.35s.06.04.09.06c.05-.02.11-.05.16-.07-.08,0-.17.01-.25.02Zm-21.44-24.44c1.77,3.87,3.99,7.66,6.76,11.23,15.68-.37,31.39-1.9,46.96-4.57,7.55-5.03,14.8-10.57,21.62-16.67-11.53-7.04-22.41-15.38-32.42-24.85-7.05,9.34-15.72,16.83-25.44,21.97-.43.34-.86.68-1.3,1.02-5.31,4.16-10.71,8.12-16.18,11.87Zm-17.1,10.9c2.34.12,4.69.22,7.04.29-.64-1.13-1.24-2.28-1.82-3.45-1.73,1.07-3.48,2.13-5.22,3.16Zm-155.98-57.36c22.42,18.41,48.12,32.5,73.2,41.27,18.78,6.57,38.23,11.15,57.98,13.79,8.17-4.06,16.33-8.67,24.44-13.81-20.54-1.24-41.02-12-55.93-30-14.14-17.07-20.77-37.19-19.03-56.33-5.95-1.4-11.87-2.93-17.75-4.59-19.34,21.34-40.37,37.93-62.91,49.66Zm383.04,33.9c-8.39,5.48-17.04,10.5-25.74,15.21,59.21-3.67,117.85-35,154.21-85.56,40.51-56.33,52.34-134.81,32.23-205.53-9.56,16.04-20.21,31.44-31.83,46.09-4.09,14.14-8.95,28.02-14.53,41.55,7.45,30.46,4.81,64.02-7.55,94.91-12.81,32.03-35.17,58.94-62.95,75.77-13.36,8.1-28.21,14-43.84,17.56Zm-78.36,10.87c7.56,1.79,15.23,3.05,22.94,3.81,6.95-3.42,13.97-6.96,20.96-10.7-5.96.04-11.98-.23-18-.84-2.35-.24-4.69-.53-7.02-.86-6.2,3.05-12.5,5.91-18.89,8.58Zm-43.39-1.14c-.85.8-1.71,1.59-2.57,2.38,1.56-.43,3.12-.87,4.67-1.32-.7-.35-1.4-.7-2.1-1.05Zm-547.38-171.27c-19.8,27.93-28.99,60.01-24.63,89.5,3.46,23.38,17.57,45.9,37.75,60.24,16.92,12.02,36.14,16.76,54.1,13.33,12.56-2.39,23.81-8.13,34.11-16.01-26.94-13.68-49.22-34.24-63.55-58.9-8.27-14.22-13.96-30-16.93-46.53-8.07-13.05-15.03-26.95-20.85-41.63Zm557.63,160.8c1.84.87,3.7,1.71,5.58,2.51,2.43-3.46,4.77-6.9,7.04-10.33-1.49-.62-2.97-1.27-4.43-1.93-2.62,3.38-5.35,6.62-8.18,9.75Zm26.11-2.89c-.71,1.09-1.42,2.17-2.13,3.25,1.81-.73,3.61-1.48,5.41-2.25-1.1-.32-2.19-.65-3.27-1Zm-203.17-72.35c-.84,14.98,4.7,30.77,15.99,44.39,11.66,14.08,27.23,22.84,42.91,24.69-2.36-19.61.98-41.02,8.01-61.14-22.49-.89-44.89-3.54-66.91-7.94Zm81.69,8.27c-5.97,15.66-9.29,31.68-9.51,46.44-.07,4.33.14,9.13.84,14.11.23-.04.47-.08.7-.12,5.11-.89,10.05-2.55,14.72-4.89,6.48-5.18,14.48-12.02,23.03-20.36-3.72-4.06-7.29-8.3-10.7-12.69-5.61-7.24-10.65-14.76-15.1-22.5-1.33,0-2.66,0-3.98,0Zm49.25,35.43c10.06,9.47,21.23,17.84,33.28,24.81,2.88-3.05,5.65-6.22,8.3-9.52-9.65-5.51-18.6-12.02-26.62-19.44-2.06-1.9-4.05-3.85-5.99-5.83-2.89,3.37-5.88,6.7-8.97,9.99Zm120.97,22.25c10.44.08,20.87-.96,31.05-3.08,15.34-10.22,29.59-21.98,41.25-36.14,10.15-12.31,18.27-27.67,22.72-43.88-19.89,24.85-42.75,46.95-68.1,65.42-8.67,6.31-17.66,12.21-26.93,17.68Zm-491.48-4.63c10.63,2.59,21.55,4.05,32.49,4.27-.47-1.74-.89-3.49-1.25-5.24-10.71-1.78-21.41-4.49-32.02-8.13.18,3.03.44,6.07.78,9.1Zm46.07.89c.27.98.56,1.96.86,2.93,5.39-.44,10.75-1.2,16.07-2.28-5.63.05-11.27-.17-16.93-.66Zm404.42-2.15c5.27,1.52,10.64,2.75,16.05,3.68,15.13-7.73,29.74-16.66,43.63-26.78,30.82-22.45,57.83-50.51,80.06-82.44-.22-11.85-2.84-23.48-8.47-34.07-27.02,20.86-56.46,38.52-87.55,52.28-8.96,20.34-18.29,41.08-28.78,60.96-4.77,9.04-9.75,17.84-14.95,26.37Zm-17.4-6.21c1.27.54,2.54,1.07,3.82,1.58,6.02-9.75,11.39-19.26,16.14-28.27,8-15.16,15.36-30.95,22.41-46.69-5.16,1.98-10.36,3.86-15.59,5.63-4.24,18.02-9.6,35.91-18.1,52.67-2.66,5.25-5.56,10.28-8.68,15.08Zm-526.59-62.6c.77,1.45,1.56,2.9,2.39,4.32,14.29,24.6,36.84,43.88,62.97,55.94,2.43-2.36,4.82-4.83,7.15-7.38-.41-.19-.83-.38-1.24-.58-26.6-12.43-51.16-30.54-71.28-52.3Zm1912.96-3.47c-8.08,7.03-15.59,13.85-20.83,22.01-4.79,7.46-6.7,16.85-4.97,24.51,1.21,5.37,4.04,9.46,8.4,12.18,11.05,6.87,27.55,1.55,35.46-7.53,7.68-8.82,10.94-21.6,9.69-37.99-.62-8.16-2.12-16.13-4.24-24.02-7.11,4.66-15.07,8.34-23.52,10.83Zm-1431.06,35.01c2.11,2.22,4.31,4.38,6.58,6.48,7.72,7.14,16.29,13.27,25.44,18.36,3.2-4.82,6.16-9.88,8.85-15.19,6.68-13.17,11.26-27.01,14.97-41.41-13.34,3.93-26.87,7.18-40.55,9.77-4.6,7.44-9.72,14.79-15.3,22Zm215.7-63.78c-.79,27.93-12.61,56.11-29.52,76.63-3.04,3.69-6.23,7.22-9.55,10.61,45.28-27.61,71.68-82.9,67.08-135.51-8.22,16.8-17.58,32.95-28,48.27Zm-560.85,82.12c2.93.17,5.88.25,8.84.23-2.59-5.47-4.96-11.12-7.08-16.94-1.14,5.42-1.76,11-1.76,16.7Zm9.55-38.71c3.52,13.5,8.4,26.25,14.43,38.02,14.74-1.7,29.41-5.77,43.16-12.32-.41-.46-.81-.92-1.22-1.38-14.98-17.15-26.33-35.54-33.86-54.63-9.02,8.82-16.86,19.04-22.52,30.31Zm-46.86,31.01c7.46,2.76,15.29,4.82,23.32,6.14.24-13.65,3.44-26.6,8.77-38.55-.77-3.25-1.46-6.53-2.1-9.85l-17.32,24.73c-4.12,5.89-8.33,11.78-12.67,17.53Zm1615.65-4.56c7.02,4.07,14.78,6.79,22.83,7.72,15.55,1.79,32.98-4.42,44.41-15.83,5.95-5.94,9.71-12.66,11.02-19.53-23.94,12.57-50.61,21.97-78.26,27.64Zm-1280.53-20.94c5.1,8.13,10.87,15.87,17.24,23.13.43-.94.84-1.89,1.24-2.86,1.79-4.37,3.16-8.82,4.12-13.28-1.91-2.63-3.74-5.3-5.51-8.02-5.69.46-11.38.8-17.09,1.03Zm-409.31-141.91c-.56,5.46-.99,10.94-1.29,16.42-2.07,37.96,2.43,90.51,35.66,125.33,5.78,6.05,12.35,11.32,19.52,15.77,2.79-24.12,10.97-46.65,24.26-66.07,6.42-9.38,13.74-17.81,21.71-25.39.31-10.09,1.09-20.54,2.36-31.41-1.96-.62-3.91-1.26-5.86-1.91-9.52-3.18-20.01-6.84-31.12-10.72-18.91-6.6-40.68-14.2-65.23-22.02Zm1533.07,137.31c8.1,4.3,17.25,7.8,26.98,10.12,32.24,7.69,65.8,9.68,98.63,6.22-7.91-10.57-13.2-23.11-14.73-36.47-1.64-14.3-.93-32.11,3.76-49.39-18.1,23.22-42.47,43.05-71.1,56.75-13.61,6.51-28.77,10.91-43.53,12.77Zm-1378.32-40.97c7.75,21.89,20.61,41.71,36.51,58.94,16.29-9.88,31.04-22.99,43.78-38.69.63-1.16,1.24-2.35,1.84-3.52-21.72-8.64-41.79-18.95-59.94-30.79-7.58,3.79-15.1,8.52-22.2,14.06Zm1520.88-54.9c-15.74,20.4-20.45,50.77-17.77,74.15,1.54,13.44,8.02,26.05,17.44,35.83,30.56-4.99,60.19-14.75,87.21-29.08,1.5-.8,3.01-1.63,4.51-2.51-6.07-19.27-27.83-33.31-48.93-46.92-1.79-1.16-3.57-2.31-5.33-3.45-13.74-8.94-26.13-18.3-37.12-28.02Zm-1575.74,44.76c-3.68,4.23-7.07,8.61-10.19,13.17-10.39,15.18-17.07,32.57-20.27,50.92,2.01-2.79,4-5.61,5.97-8.42l25.81-36.87c-.65-6.13-1.09-12.39-1.32-18.79Zm147.23,37.69c-4.59,8.53-9.91,16.72-15.88,24.45,10.54-7.65,20.63-16.49,30.21-26.43-3.4-1.1-6.79-2.25-10.16-3.44-1.36,1.83-2.75,3.64-4.17,5.41Zm-285.5-38.61c1.76,2.77,3.58,5.5,5.46,8.19,14.64,21.01,32.64,38.87,52.66,52.97-32.61-38.23-37.14-91.79-35.01-130.77.36-6.66.92-13.31,1.65-19.93-.03,0-.04-.01-.06-.02-4.98,2.97-9.81,6.09-14.5,9.37-10.8,24.82-14.47,53.23-10.19,80.19Zm485.18,60.11c.16.2.31.4.47.6,2-2.63,3.97-5.32,5.91-8.09-1.9.27-3.79.53-5.69.78-.14,2.23-.37,4.47-.69,6.71Zm-48.14-23.07c.91,1.96,1.86,3.92,2.84,5.85,5.64-.13,11.27-.37,16.9-.73-3.81-7.02-7.25-14.29-10.35-21.75-3.25,5.51-6.43,11.08-9.4,16.63Zm-88.16-2.06c22.93,4.59,46.28,7.21,69.71,7.86.97-2.18,1.99-4.34,3.04-6.47-7.5-17.8-12.02-36.37-13.32-54.98-26.61,12.6-49.45,27.05-58.98,52.35-.16.41-.31.83-.45,1.25Zm107.4-27.76c4.25,11.23,9.2,22.04,15.04,32.22-1.27-9.49-4.58-18.36-9.87-25.79-1.62-2.27-3.35-4.41-5.17-6.43Zm6.22-13.7c3.74,3.6,7.21,7.59,10.35,12.01,7.05,9.91,11.31,21.5,12.68,33.8,5.4-.72,10.77-1.54,16.13-2.48,15.23-26.1,25.89-57.07,24.04-91.51-.75-13.94-4.07-26.23-9.45-35.88-7.21,13.26-17.42,23.65-29.32,32.32-5.66,18.17-14.74,35.2-24.44,51.74Zm1090.22,45.46h0c18.04.62,38.54-3.89,56.2-12.35,35.85-17.16,64.47-44.5,81.25-75.86-2.34.31-4.68.61-7.01.92-4.03.53-8.05,1.05-12.07,1.59-1.92.26-3.85.52-5.8.78,1.86,20.17-8.44,42.25-27.93,55.68-28.88,19.89-65.14,17.66-84.18,14.57-4.43-.72-8.83-1.62-13.19-2.69,2.44,6,6.84,11.91,12.73,17.36Zm-49.69-31.17c1.19,4.18,3.07,8.12,5.65,11.66,5.98,8.19,14.21,13.08,22.7,15.92-3.73-5.92-6.18-12.13-7.12-18.45-7.27-2.56-14.36-5.61-21.22-9.12Zm-971.36-98.65c4.52,10.26,7.3,22.27,8.01,35.44,1.59,29.57-5.21,59.38-20.25,88.77,11.86-2.6,23.59-5.74,35.16-9.39,1.43-6.54,2.77-13.18,4.14-19.91,4.14-20.48,8.43-41.65,15.81-61.72,3.27-8.89,7.54-17.58,12.64-25.76-18.38-3.18-36.9-5.65-55.5-7.41Zm-206.97,120.21c3.47.92,6.93,1.79,10.42,2.61.34-1.07.71-2.13,1.1-3.18,9.14-24.26,28.11-39.75,50.24-51.99-8.64-1.08-17.38-1.65-25.94-1.92-10.56,19.88-22.59,38.19-35.83,54.47Zm-170.6-5.98c.33,2.55.69,5.08,1.1,7.59,6.25-9.1,13.68-17.37,21.81-24.63-1.11-3.84-2.06-7.7-2.86-11.58l-20.04,28.62Zm1569.61-77.32c10.36,9.12,22.06,17.93,35.05,26.38,1.74,1.13,3.5,2.27,5.28,3.42,21.07,13.59,44.5,28.72,53.36,50.74,5.23-3.91,10.2-8.28,14.6-13.03-5.11-4.76-9.42-9.87-12.75-15.11-13.75-21.62-17.72-47.13-11.33-72.27-1.02-.37-2.04-.71-3.07-1.02-25.13,10.46-52.85,16.41-81.1,20.85-.01.01-.03.03-.04.04Zm127.86,65.14c15.76,10.57,36.96,17.32,59.05,14.32,2.93-.4,5.84-.97,8.69-1.71,2.35-2.03,4.63-4.01,6.83-6-3.63-.8-7.18-1.81-10.61-3.03-15.61-5.57-27.47-14.97-34.29-27.18-4.93-8.82-6.29-19.38-4.15-29.68-.04-.21-.07-.42-.11-.63-2.14-13.32,3.22-28.34,13.64-38.27,1.01-.96,2.04-1.88,3.09-2.78-19.13,1.35-39.26-1.15-58.3-7.15-2.79,1.84-5.63,3.59-8.52,5.26-.63,1.38-1.23,2.78-1.8,4.18,17.33,9.35,31.49,24.2,36.12,40.16,5.02,17.31,1.68,35.46-9.66,52.52Zm-1553.63,10.05c4.06,1.39,8.13,2.71,12.23,3.96,12.71-14.87,24.36-31.79,34.75-50.52-.58,0-1.15,0-1.73,0-7.24.05-14.67.16-22.22.41-6.2,16.6-13.95,32.08-23.03,46.14Zm124.72-35.98c1.2,11.9,3.81,23.64,7.66,35,3.2-5.59,6.5-11.13,9.78-16.58-1.39-4.03-2.69-8.1-3.93-12.21-4.29-2.38-8.81-4.44-13.51-6.21Zm179.47-65.93c-5.95,8.7-10.91,18.17-14.46,27.82-7.01,19.06-11.19,39.7-15.23,59.67-.8,3.95-1.6,7.93-2.43,11.91,2.85-1.03,5.68-2.1,8.51-3.19,3.92-1.52,7.82-3.11,11.69-4.76.63-1.44,1.27-2.88,1.9-4.32,11.68-26.62,23.66-53.93,38.1-79.91-9.37-3.05-18.92-5.35-28.07-7.2Zm-371.37,70.93c17.2,10.41,34.51,18.52,50.28,24.76,4.8-11.96,8.13-24.49,9.71-37.29.03-.23.06-.46.08-.7-20.28,2.05-40.74,5.92-60.08,13.23Zm1307.49,16.39c5.63,1.6,11.36,2.89,17.16,3.83,28.87,4.7,55.84.22,74-12.28,13.47-9.27,23.43-26.07,22.15-42.17-28.11,4.29-58.27,10.6-85.3,23.06-11.87,5.47-25.43,14.45-28.02,27.55Zm354.43-27.42c.24.52.51,1.03.79,1.53,8.39,15.02,26.43,22.94,44.7,24.79,1.04-1.25,2.09-2.59,3.13-4-2.53-6.24-5.3-12.49-8.2-18.78-5.39.45-10.86.69-16.38.73-7.75.04-15.94-.39-23.28-3.88-.26-.12-.52-.25-.77-.38Zm-71.83-46.96c-4.51,20.5-.97,41.12,10.2,58.67,2.51,3.95,5.76,7.85,9.61,11.53,7.7-11.96,11.28-25.57,7.12-39.9-3.33-11.49-13.92-22.67-26.93-30.3Zm-319.05,58.77c7.35,4.31,15.1,8.06,23.15,11.16,2.79-11.14,11.63-24.83,35.46-35.82,27.92-12.87,58.53-19.45,87.07-23.88-.25-.44-.5-.88-.77-1.31-3.32-5.36-7.89-9.72-13.31-13.47-21.26.6-43.16,1.32-63.73,5.94-25.07,5.63-45.33,16.94-57.05,31.85-6.12,7.78-9.75,16.71-10.81,25.54Zm-858.33-59.57c-12.79,22.77-23.68,46.81-34.13,70.53,25.13-12.32,49.01-27.29,71.21-44.5-9.68-11.71-22.81-19.98-37.08-26.03Zm1339.39,40.61c-1.2,10.69-4.55,20.68-9.9,29.58,14.03-4.58,26.67-12.45,36.57-22.48-1.44-1.84-2.8-3.69-4.08-5.55-1.99-2.9-3.87-5.84-5.63-8.83-5.41,2.7-11.08,5.13-16.96,7.28Zm-1830.78,14.9c-.06,4.94,0,9.8.2,14.57l19.06-27.22c-.05-.69-.09-1.38-.12-2.07-6.94,4.65-13.31,9.56-19.13,14.73Zm1876.01-8.01c12.27,12.13,28.86,21.51,46.02,18.19,27.78-5.39,37.05-39.53,39.75-53.96.4-2.16.75-4.35,1.04-6.56-22.8,3.02-47.14-1.13-69.4-6.73-.11,5.96-.86,11.92-2.3,17.77-2.76,11.25-8,21.85-15.1,31.29Zm-1842.4-.75c.63,6.31,1.7,12.5,3.16,18.54,4.4-3.19,8.92-6.11,13.49-8.71-1.52-1.11-3.02-2.23-4.51-3.36-3.67-2.79-7.23-5.65-10.68-8.56l-1.46,2.09Zm1781.11-1.15c-.54,3.87-1.49,7.75-2.84,11.63,1.72-3.78,3.04-7.77,3.94-11.92-.37.1-.74.2-1.11.29Zm-19.12,3.96c.77,1.72,1.54,3.44,2.3,5.17.75-1.9,1.4-3.86,1.93-5.87-1.4.25-2.81.48-4.23.71Zm-1248.25-20.74c4.47,7.82,7.52,16.13,9.3,24.68,9.67-15.78,18.24-32.36,25.57-49.54-.53-1.87-1.1-3.71-1.71-5.51-10.53,10.68-21.61,20.83-33.17,30.37Zm-251.41,21.92c1.18.75,2.34,1.52,3.49,2.32,5.94-10.19,11.45-20.3,15.94-30.6-7.68,4.18-15.69,7.98-23.79,11.63,1.35,5.6,2.79,11.16,4.36,16.65Zm987.53-85.63c1.06,9.14,3.22,18.19,6.54,26.94,8.74,23.04,25.54,43.65,46.97,59.21,2.1-9.07,6.29-17.97,12.51-25.88,17.56-22.35,45.04-32.38,64.99-36.86,13.46-3.02,27.2-4.47,40.89-5.27-2.45-.99-4.93-1.97-7.43-2.96-9.08-3.59-18.3-7.23-26.79-11.77-3.14.06-6.31.08-9.5.07-41.37-.07-83.55-1.18-128.18-3.47Zm-1240.41,68.13c6.9,5.89,14.03,11.32,21.26,16.3,11.15-4.93,22.65-8.66,34.29-11.49-18.36-1.01-36.54-3.13-54.47-6.35l-1.08,1.54Zm109.88,11.16c-.07.68-.14,1.36-.21,2.04.29-.69.57-1.39.85-2.09-.21.01-.42.03-.64.04Zm123.2-3.48c1,.38,2,.78,2.99,1.19-.19-.75-.38-1.5-.56-2.25-.17.07-.33.15-.5.22-.64.28-1.29.57-1.93.85Zm-452.56-22.05c2.56,7.04,5.38,13.92,8.48,20.62.24-6.02.83-12.06,1.77-18.1.87-5.61,2.03-11.13,3.46-16.52-4.9,4.47-9.47,9.15-13.71,14.01Zm1915.82,7.62c1.33,4.11,4,7.13,7.96,9.01,4.54,2.15,10.16,2.57,17.19,2.53,3.4-.02,6.78-.12,10.13-.31-5.08-10.85-10.25-21.95-14.7-33.28-6.95,2.12-12.97,7.03-17.15,14.18-1.48,2.54-2.63,5.19-3.43,7.88Zm-1737.3-4.49c-.55,5.02-1,9.94-1.34,14.78,4.81-3.71,9.77-7.17,14.83-10.41-.33-.34-.65-.68-.97-1.02-4.19-1.05-8.36-2.17-12.52-3.35Zm1857.85,4.49c1.55,2.61,3.2,5.2,4.95,7.75.55.81,1.13,1.62,1.73,2.43,4.94-7.14,8.63-14.97,10.74-23.21-5.3,4.74-11.13,9.1-17.42,13.04Zm-85.01-22.41c4.06,9.84,8.63,19.61,13.11,29.16.48,1.02.96,2.04,1.44,3.06,3.93-.52,7.8-1.17,11.61-1.92,0-.05,0-.1-.01-.15-1.27-12.96-11.68-26.69-26.14-30.15Zm-1559.58,25.6c13.36.66,27.02,2.14,40.17,5.09.11-.05.21-.1.32-.15.04-1.54.1-3.08.19-4.62.2-3.55.53-7.37,1.06-11.36-13.67,4.26-27.55,7.84-41.61,10.75-.04.09-.09.18-.13.28Zm1553.96-40.4c11.22.37,22.06,5.1,30.68,13.43,8.01,7.75,13.34,18,14.81,28.38.83-.24,1.64-.47,2.46-.72-.27-17.33-6.44-33.88-15.58-50.34h0c-12.86,0-24.08,1.8-33.63,5.4.22.7.44,1.39.67,2.08.2.59.4,1.18.6,1.77Zm-1497.24,24.42c-.97,5.1-1.56,10.02-1.89,14.55.76-.33,1.51-.66,2.27-1,.97-.43,1.95-.85,2.92-1.28-.9-4.17-1.75-8.34-2.57-12.53-.24.09-.49.17-.73.26Zm1545.82-32.8c7.14,14.34,12.13,29.14,13.17,44.63,3.47-1.41,6.85-2.92,10.12-4.55-5.9-12.54-9.83-25.55-11.7-38.55-3.98-.63-7.84-1.14-11.6-1.52Zm-1759.6,38.83c26.8,4.01,54.08,5.52,81.24,4.56-.4-9.71-1.82-19.59-4.4-29.19-7.2,1.74-14.36,3.59-21.5,5.56-20.64,5.67-39.03,12-55.35,19.08Zm90.43-27.79c2.77,10.44,4.32,21.14,4.77,31.63,2.52-.17,5.03-.36,7.55-.57.98-3.29,1.9-6.62,2.76-9.99,2.22-8.7,3.87-17.11,4.97-25.23-6.7,1.29-13.39,2.68-20.05,4.16Zm34.48-6.79c-1.13,10.05-3.08,20.5-5.84,31.32-.43,1.68-.87,3.35-1.33,5.01,10.06-1.19,20.05-2.72,29.99-4.6,5.07-11.2,9.73-22.93,13.94-35.14-2.67-.16-5.32-.49-7.92-.98-9.64,1.27-19.26,2.73-28.84,4.38Zm102.91,23.35c.74,3.89,1.52,7.78,2.34,11.65,12.33-5.62,24.05-11.48,34.34-18.43.98-3.61,1.8-7.27,2.44-10.97-12.43,6.51-25.49,12.43-39.11,17.75Zm212.38-20.68c15.53,6.79,29.94,16.14,40.89,29.45,12.38-10.28,24.18-21.26,35.31-32.89-9.29-18.51-23.1-31.94-39.09-37.36-2.03-.69-4.04-1.25-6.03-1.68-8.83,9.89-17.17,20.8-24.9,32.66-2.11,3.23-4.17,6.51-6.18,9.82Zm-464.33,27.6c.1.02.21.04.31.06,2.03-1.05,4.06-2.08,6.09-3.08l21.87-31.24c5.6-8,11.56-16.33,17.88-24.71-4.95-2.61-9.68-6.11-14.16-10.47-17.46,20.8-28.47,44.67-32,69.43Zm1809.97-30.2c1.82,9.72,4.93,19.42,9.28,28.86,5.43-3.47,10.47-7.29,15.04-11.43,3.02-2.74,5.83-5.64,8.42-8.66-3.83-1.09-7.56-2.18-11.17-3.23-7.48-2.18-14.67-4.03-21.57-5.54Zm-1609.13-4.27c-3.68,11.11-7.77,21.93-12.25,32.44,12.64-2.91,25.12-6.38,37.4-10.43,1.72-6.62,4.09-13.38,7.31-19.92-.4-2.46-.79-4.93-1.18-7.41-5.67.33-11.32.72-16.98,1.18-4.64,1.95-9.45,3.32-14.3,4.14Zm-228.74,12.26c4.5,6.38,9.3,12.4,14.35,18.09,3.32-20.97,11.46-41.27,23.9-59.81-10.1,3.92-20.53,6.27-30.9,6.99-.84,3.25-1.65,6.58-2.4,9.99-1.89,8.5-3.54,16.74-4.96,24.75Zm1495.26,2.38c1.81,2.1,3.48,4.34,4.98,6.76,1.31,2.12,2.43,4.31,3.36,6.57,2.45-.34,4.88-.67,7.28-.99,4.03-.54,8.06-1.06,12.1-1.59,4.15-.54,8.3-1.09,12.46-1.64-3.41-3.82-6.62-7.68-9.63-11.59-6.06.81-12.4,1.43-19.03,1.87-3.83.25-7.68.45-11.53.61Zm-1611.88-26c24.71,7.89,46.85,15.62,66.47,22.47,11.06,3.86,21.52,7.51,30.94,10.66,1.1.37,2.2.73,3.3,1.09.36-2.45.75-4.91,1.16-7.39-3.32-4.98-6.41-10.07-9.25-15.26-5.55-10.15-10.18-20.86-13.86-32-3.1-2.07-6.11-4.56-9.04-7.48-25.81,8.59-48.94,17.38-69.73,27.91Zm-80.4-8.45c2.12,14.63,5.23,28.83,9.31,42.49,4.08-4.28,8.41-8.41,12.98-12.36,4.83-4.18,9.84-8.12,15-11.85,1.14-2.43,2.33-4.82,3.59-7.17-12.99-3.76-26.63-7.5-40.87-11.11Zm1756.09,24.75c-1.19,5.43-2.71,10.83-4.53,16.15,1.64-.24,3.27-.49,4.91-.74,19.81-15.75,44.26-24.33,69.72-24.33.25,0,.5,0,.76,0,5.13.03,10.35.7,15.51,1.91,4.25-1.89,8.4-3.92,12.44-6.11.36-.7.72-1.39,1.1-2.08-1.8-.82-3.57-1.67-5.33-2.55-11.81-5.92-22.29-13.13-31.23-21.29-3.47,1.26-7,2.37-10.58,3.32-3.34,4.65-7.24,9.04-11.74,13.12-10.79,9.77-24.38,17.27-41.02,22.59Zm-1471.07-24.6c-6.95,9.05-13.73,18.42-20.36,27.9l-8.75,12.49c15.79-6.13,31.14-10.79,44.77-14.54,6.9-1.9,13.84-3.69,20.8-5.39-3.2-8.01-7.3-15.64-12.38-22.56-3.88,1.41-8.02,2.33-12.42,2.66-3.96.3-7.85.11-11.65-.57Zm187.76,24.11c.21,1.29.43,2.57.64,3.85.29,1.74.59,3.48.89,5.21,14.8-5.9,28.88-12.56,42.14-19.91-12.06-.26-24.12-.23-36.18.09-2.89,3.38-5.36,7-7.48,10.76Zm1617.64.16c21.07,5.1,43.7,8.6,64.1,5.28,0-9.47-1.31-18.78-4.43-26.91-18.73-3.64-35.56-10.47-46.22-25.18-.42-.58-.82-1.16-1.22-1.75.5,16.36-3.75,33.23-12.23,48.57Zm-351.79,4.87c.47.56.94,1.12,1.42,1.68.21-.7.41-1.41.61-2.11-.67.15-1.35.29-2.03.43Zm-1207.49-8.09c-.14,1.76-.32,3.51-.54,5.25,2.91-3.03,5.58-6.26,7.97-9.73-2.45,1.52-4.92,3.01-7.43,4.48Zm1634.38-16.1c1.78,6.73,2.7,13.86,2.93,21.06,4.55-1.62,8.93-3.7,13.08-6.3,5.28-3.31,9.87-7.44,13.66-12.23-4.76-.33-9.79-.71-15.15-1.14-4.84-.39-9.71-.83-14.52-1.39Zm-1515.23,9.33c8.45,1.89,17.14,4.19,25.69,7.11,2.49-4.16,5.06-8.27,7.7-12.34,5.92-9.08,12.27-17.73,18.98-25.87-.22.03-.44.05-.67.08-14.4,15.67-31.52,25.77-50.61,29.78-.37.41-.74.83-1.1,1.24Zm989.99-9.72c1.18.47,2.37.94,3.56,1.41,11.06,4.37,22.31,8.82,32.15,14.86,8.89-.25,18.01-.54,26.89-1.13,3.69-.24,7.29-.55,10.78-.91-2.27-3.55-4.39-7.13-6.35-10.75-3.85-7.12-7.07-14.44-9.64-21.85-3.13-.63-6.25-1.29-9.36-1.95-3.57-.77-7.18-1.56-10.81-2.39-2.7,4.09-6.04,7.74-9.93,10.77-8.02,6.25-17.27,9.85-27.3,11.93Zm392.84,4.65c8.64,1.76,17.72,4.04,27.25,6.81,2.5.73,5.07,1.48,7.69,2.23-3.78-15.31-12.48-29.69-25-40.62-2.17-.04-4.36-.11-6.56-.22-.2.72-.39,1.44-.57,2.16-2.41,9.57-3.33,19.54-2.81,29.63Zm-1711.65-18.02c5.67,8.05,10.22,16.86,13.71,26.06,8.54-1.91,17.12-3.67,25.72-5.28,1.18-22.1-2.19-41.74-10.1-58.69-.6-1.28-1.22-2.54-1.88-3.78-5.56,16.57-14.58,32.16-27.45,41.69Zm1392.35-1.95c1.71,4.1,3.65,8.15,5.81,12.15,2.8,5.17,5.96,10.28,9.47,15.31,5.2-.89,10.13-1.94,14.81-3.15.53-3.47.91-6.95,1.14-10.43.21-3.27.29-6.53.23-9.78-10.53-.85-21.04-2.3-31.47-4.09Zm-1537.04,5.85c2.5,6.18,5.34,12.21,8.53,18.04.26.47.52.94.78,1.41.7-3.43,1.44-6.9,2.23-10.42.53-2.37,1.08-4.71,1.65-7.02-4.45-.36-8.85-1.03-13.18-2.01Zm554.44-22.5c17.92,6.2,33.44,20.32,44.28,39.62,4.84-5.42,9.53-10.96,14.08-16.63,5.84-20.77,9.94-42.11,12.17-63.75.16-1.56.31-3.12.45-4.68-24.89,8.41-49.15,23.94-70.98,45.44Zm1330.91,4.5c8.8,10.36,15.21,22.41,18.78,35.12,5.79-12.33,8.48-25.49,7.7-38.15-2.73.27-5.53.63-8.44,1.06-5.6.82-11.66,1.52-18.04,1.98Zm-173.84,28.66c17.36,4.18,35.31,5.22,52.02,2.8.17-.03.35-.05.52-.08-2.6-16.62-2.17-33.47,1.39-48.53-6.46,1.8-12.83,4.1-19.03,6.91-1.35.61-2.69,1.24-4,1.89-7.21,13.35-17.63,25.91-30.9,37.01Zm-1513.17.52c-.02,1.06-.04,2.13-.08,3.2,1.1-.18,2.21-.37,3.31-.55-1.11-.84-2.19-1.73-3.23-2.66Zm1384.17-12.18c.04,3.32-.04,6.64-.26,9.95-.11,1.62-.24,3.24-.41,4.86,10.84-4.14,19.97-9.41,27.49-15.86-8.88.98-17.84,1.27-26.83,1.05Zm241.22,10.74c5.9.31,12.07.94,18.52,1.89-.22-8.61.5-17.15,2.17-25.46-6.47,6.52-14.5,13.05-23.51,18.96.96,1.53,1.9,3.07,2.82,4.61Zm-44.8-40.52c-2.96,13.05-3.23,27.24-1.19,41.04,8.04-2.42,15.96-5.79,23.42-9.74-4.73-6.92-9.74-13.89-14.81-20.94-2.48-3.44-4.96-6.9-7.43-10.37Zm-1563.41-38.67c-8.94,9.53-15.57,21.02-18.25,32.43-2.03,8.65-2.67,21.36,5.83,32.78,5.45,7.32,13.99,12.25,23.58,14.42,4.21-.54,8.43-1.05,12.65-1.52,7.02-23.14,12.63-46.94,17.63-70.73-13.61-3.7-27.34-6.34-41.44-7.38Zm169.34,75.92c10.54.86,21.07,1.94,31.56,3.24-6.93-3.54-13.57-7.97-19.73-13.23-2.31,1.91-4.65,3.78-7.05,5.64-1.69,1.31-3.4,2.61-5.13,3.9.12.15.23.3.35.45Zm-114.44-64.55c-4.61,21.84-9.75,43.74-16.04,65.21,1.79-.16,3.58-.32,5.37-.47.21-.1.43-.2.64-.31,5.86-2.87,11.35-6.82,16.32-11.68-2.24-17.04-4.05-34.56-5.09-52.37-.4-.13-.8-.26-1.2-.39Zm-381.1,61.11c-.89,1.12-1.76,2.25-2.61,3.4.75-.42,1.5-.83,2.26-1.24.11-.71.23-1.44.35-2.16Zm524.49-11.15c14.86,10.03,32.4,15.38,49.78,13.63,1.31-.13,2.61-.3,3.89-.49,4.23-4.36,8.72-8.38,13.42-11.99-.02,0-.03,0-.05,0-20.81,3.34-43.89,2.89-67.05-1.15Zm-60.02,12.71c2.58.1,5.15.22,7.73.35.24-.16.48-.32.72-.48-.9-.54-1.81-1.04-2.75-1.5-2.06-1.01-4.17-1.8-6.31-2.4.23,1.34.43,2.68.61,4.02Zm-62.31-5.21c.24,1.76.49,3.5.74,5.25,1.67-.07,3.34-.13,5.01-.19,10.53-10.32,24.01-16.73,37.56-18.58-3.17-8.59-7.58-16.9-13.13-24.68-2.75-1.12-5.49-2.23-8.22-3.33-.05.18-.1.36-.16.54-4.67,15.92-12.21,29.93-21.8,40.98Zm32.02,4.61c5.37,0,10.72.06,16.08.17-.25-1.6-.55-3.19-.88-4.78-5.69.54-11.3,2.19-16.48,4.61.43,0,.86,0,1.28,0Zm-502.1-14.29c17.66,4.42,34.39,9.03,50.23,13.69,6.55-9.69,14.23-18.45,22.91-26.03,7.65-31.83,19.49-62.65,35.01-91.47-1.63-7.04-3.02-13.72-4.18-19.8-8.5,1.15-17.42-1.26-25.26-6.97-12.23-8.91-19.77-23.96-19.23-38.35.78-20.45,13.5-40.79,36.77-58.81,3.12-2.42,6.31-4.74,9.57-6.95,8.75-21.73,22.57-40.45,40.23-54.42,2.8-2.22,5.7-4.31,8.68-6.28,4.26-20.32,9.56-40.56,17.32-59.97,1.65-4.12,3.47-8.19,5.44-12.2-10.97,7.41-21.61,15.42-31.86,24-77.12,64.6-129.42,158.77-143.48,258.39-4.13,29.29-4.81,57.9-2.16,85.17Zm1835.47-5.43c6.9,5.62,14.7,10.68,23.29,14.98,2.15,1.08,4.34,2.1,6.55,3.08,11.17-15.63,26.56-29.02,45.05-38.93,5.95-12.23,8.83-25,8.18-37.45-1.06-20.25-11.68-37.84-29.14-48.27-5.92-3.54-12.73-6.12-19.84-7.74,11.25,13.27,17.31,29.04,16.91,44.66-.48,18.5-9.05,36.2-24.79,51.2-7.55,7.2-16.47,13.45-26.21,18.46Zm326.1,10.72c6.97,1.05,14.21,1.73,21.42,2.31,7.97.64,15.21,1.16,21.9,1.58,1.47-3.6,2.6-7.41,3.36-11.37,3.06-15.97-.47-32.33-9.66-44.87-18.76-25.59-58.99-37.35-93.58-27.35-.79.23-1.58.47-2.37.72.87,4.27,1.48,8.09,1.91,11.28.33,2.46.63,4.97.93,7.52,1.21,10.3,2.45,20.85,6.48,30.29,7.54.94,15.25,2.92,23.66,6.35,12.06,4.92,20.44,13.3,25.95,23.54Zm-686.28-.31c41.36,2.14,80.6,3.27,119.01,3.49-2.26-2.28-4.35-4.75-6.23-7.45-8.24-11.81-10.21-26.56-6.7-40.01-10.13-6.18-19.61-13.25-28.15-21.41-10.42-9.96-18.5-21.9-23.5-34.7-5.32,3.54-10.34,7.45-15,11.7-25.32,23.15-39.23,55.68-39.44,88.38Zm118.79-36.83c-1.35,8.56.35,17.52,5.47,24.87,4.39,6.29,10.49,11.17,17.62,15.33,16.95-.55,32.48-2.84,43.63-11.54,1.3-1.01,2.5-2.12,3.62-3.32-23.91-6.07-48.26-13.94-70.34-25.35Zm-1508.37,27.22c-.91,4.04-1.76,8.09-2.53,12.16,19.18-9.19,39.23-16.72,59.13-23.46-3.3-4.65-6.47-9.92-9.51-15.78-17.05,7.18-32.99,15.57-47.08,27.08Zm442.42.64c5.63.67,11.07,2.22,16.12,4.69,2.46,1.21,4.82,2.62,7.07,4.22.71-4.39.98-8.87.85-13.37-10.25-3.5-20.42-7.39-30.46-11.38,2.55,5.16,4.69,10.46,6.41,15.84Zm1441.54-23.56c2.19,3.08,4.42,6.17,6.65,9.28,5.22,7.26,10.48,14.58,15.51,21.98,7.07-4.63,13.45-9.66,18.78-14.69-13.13-2.88-26.17-7.61-38.28-14.9-.89-.54-1.78-1.09-2.65-1.67Zm-1670.66,27.5c-.52.62-1.03,1.25-1.55,1.87,1.07-.08,2.11-.22,3.14-.4-.53-.5-1.06-.99-1.6-1.47Zm1826.61-7.02c4.04,2.92,8.69,5.23,13.77,7.08-2.65-2.12-5.66-3.91-9.06-5.3-1.6-.65-3.17-1.25-4.71-1.78Zm-1857.48-3.3c4.03,4,8.51,7.31,13.47,9.48,2.02-2.55,4.08-5.09,6.17-7.61-.95-.6-1.93-1.18-2.92-1.74-3.67-2.08-7.45-3.85-11.32-5.33-.56.52-1.12,1.04-1.68,1.56-1.27,1.2-2.51,2.41-3.73,3.63Zm-95.3,4.15c1.49.72,3.01,1.31,4.56,1.76,5.88,1.71,11.97,2.7,18.15,3,1.75-5.81,3.65-11.37,5.7-16.67-9.96,1.97-19.92,4.58-29.66,7.48.4,1.49.82,2.96,1.25,4.44Zm44.59-14.51c-2.54,5.83-4.88,12.04-7.02,18.64,12.36-1.6,24.75-5.88,36.31-12.69-1.47-2.21-2.9-4.54-4.29-6.98-8.19-.39-16.56.02-25,1.03Zm90.7,10.06c2.19,1.96,4.27,4,6.26,6.12,10.52-7.56,18.1-20.8,22.87-34.67-10.11,8.42-19.79,18.07-29.13,28.55Zm1452.04,5.94c14.21.44,28.27-.49,41.88-3.49,1.52-2.48,2.86-5.02,4.03-7.63-16.07-21.42-23.05-46.66-18.27-71.19,1.24-6.36,3.24-12.22,5.93-17.5-.47-.64-.94-1.28-1.43-1.91-6.93-9.03-15.29-17.52-24.79-25.31-20.49,7.87-38.67,22.78-49.5,41.57,6.94,6.94,13.23,14.6,18.73,22.85,12.78,19.2,20.8,40.8,23.42,62.6Zm-49.81-5.98c11.81,2.22,23.75,4.07,35.65,5.12-3.62-26.4-15.89-51.36-34.25-71.1-7.34,20.13-7.73,43.27-1.4,65.97Zm-1114.92-.79c40.86,7.01,84.26,2.66,113.32-20.17,11.04-18.8,18.1-41.31,20.63-64.09-19.87,12.16-41.96,20.5-64.55,23.99-8.85,1.36-17.67,2.14-26.41,2.38-.63,1.21-1.28,2.41-1.94,3.61-10.68,19.45-24.42,37.61-41.04,54.28Zm-130.87-30.94c.73,10.8,1.75,21.5,2.95,32.04,4.54-7.35,8.24-15.72,10.92-24.83.18-.6.35-1.19.51-1.79-4.8-1.87-9.6-3.69-14.38-5.42Zm1220.73,26.53c2.61.59,5.21,1.15,7.79,1.71.69.15,1.39.3,2.09.44-5.72-25.46-3.91-51.21,5.7-73.39-12.28-10.56-26.57-19.01-42.32-24.53-37.41-13.13-81.56-8.97-116.58,9.36,4.17,11.71,11.4,22.71,20.93,31.82,7.25,6.93,15.29,13.03,23.91,18.44,3.44-5.83,8.09-11.02,13.87-15.11,21.95-15.55,55.81-12.66,73.94,6.3,8.83,9.24,13.35,22.12,12.38,35.33-.24,3.3-.82,6.52-1.7,9.63Zm-1113.48-.97c2.3.66,4.62,1.28,6.95,1.86,17.81-16.62,32.58-34.93,43.76-54.51-23.69-1.03-46.74-5.74-68.65-12.79-1.04,7.45-1.18,14.99-.33,22.46.4,3.55,1.05,7.04,1.93,10.47,2.93,5.67,5.32,11.68,7.11,17.94.09.32.18.63.27.95,2.57,4.8,5.58,9.36,8.96,13.61Zm143.31,1.11c.59.04,1.18.08,1.77.13,11.77-12.43,24.4-23.36,37.56-32.42,16.52-11.38,33.43-19.63,50.6-24.71.36-7.69.47-15.29.32-22.79-9.41-14.21-20.18-26.91-32.03-37.77-5.97,7.06-12.52,13.65-19.53,19.72,2.93,23.81-1,48.18-14.85,69.45-5.43,8.33-12.04,15.7-19.72,22.03-1.34,2.18-2.71,4.31-4.12,6.36Zm1106.9-2.58c.79.9,1.6,1.8,2.43,2.69,25.53-11.66,47.32-33.27,48.01-59.78.45-17.48-9.64-34.39-25.14-46.19-10.13.56-19.65,3.12-26.91,7.72-3.92,2.49-7.28,5.54-10.07,9.15,15.25,25.42,20.99,58,11.68,86.41Zm-1003.63-43.3c-.26,3.37-.56,6.75-.91,10.16-1.16,11.26-2.81,22.43-4.93,33.5,6.23-9.3,12.07-18.87,17.5-28.65-.53-1.44-1.08-2.87-1.64-4.3-1.56-3.98-3.21-7.9-4.95-11.74-1.69.31-3.39.66-5.08,1.04Zm780.51,16.54c22.52,11.89,47.92,19.88,72.74,26,.73-2.39,1.2-4.89,1.39-7.45.68-9.27-2.43-18.25-8.54-24.64-13.13-13.74-39.69-15.91-55.72-4.55-4.08,2.89-7.39,6.55-9.86,10.65Zm-1313.31,19.5c2.08.99,4.14,2.06,6.18,3.22,1.78,1.01,3.52,2.08,5.21,3.18,8.85-9.96,18.27-19.5,28.26-28.09.58-.49,1.15-.99,1.73-1.47-14.62,5.68-28.64,13.49-41.38,23.16Zm1759.5.97c1.66,1.13,3.27,2.31,4.84,3.54,10.8-.09,21.03-1.08,30.01-2.4,2.78-.41,5.49-.76,8.15-1.04-.93-3.32-2.13-6.55-3.61-9.69-3.66-7.75-9.14-14.61-15.8-20.34-9.7,8.36-17.78,18.56-23.59,29.93Zm-1899.22-12.29c2.61,4.95,5.38,9.53,8.31,13.61-.99-5.22-1.78-10.49-2.38-15.83-1.98.73-3.96,1.47-5.92,2.22Zm363.29-3.05s.03.01.04.02c13.39,5.45,27.12,11.04,40.91,15.98-.11-.46-.22-.92-.34-1.38-3.15-6.12-5.65-12.51-7.44-19.02-5.57-10.28-13.39-19.48-23.13-26.46-7.1-5.09-15.09-9.01-23.59-11.75,1.37,9.24,1.6,18.75.7,28.25,2.05,1.96,4.04,4.01,5.97,6.13,2.43,2.67,4.72,5.41,6.88,8.23Zm-343.53-4.16c.62,6.7,1.55,13.31,2.81,19.83,12.91-3.82,26.19-7.13,39.49-9.22,2.7-5.54,5.6-10.72,8.67-15.53,3.06-4.78,6.28-9.18,9.67-13.17-.42-1.68-.82-3.39-1.19-5.14-3.32,1.6-6.66,3.13-10.03,4.6-14.18,6.19-29.06,11.44-43.44,16.52-2,.71-3.99,1.41-5.97,2.11Zm1840.46,17.62c1.54.44,3.09.84,4.64,1.22-1.53-.44-3.08-.85-4.64-1.22Zm-1892.73-56.78c-8.97,18.48-16.4,37.71-22.15,57.43,11.25-7.28,23.27-13.23,35.61-18.47-4.57-10.62-8.82-22.77-12.74-36.43-.24-.84-.48-1.69-.72-2.53Zm137.85,48.19c5.83.64,11.59,1.69,17.23,3.2,12.38-12.94,20.49-28.68,23.04-45.33.02-.13.04-.25.06-.38-5.28-.54-10.55-.37-15.71.58-12.57,2.31-23.94,8.52-33.96,18.51,1.98,6.23,5.06,14.74,9.33,23.42Zm1551.54-54.28c-.47,1.62-.87,3.31-1.21,5.05-3.38,17.3.35,35.13,9.8,51.25,3.33-18.76-.21-38.9-8.59-56.3Zm176.14,45.8c17.27,0,34.05,3.2,48.95,9.55,5.11-11.26,5.97-22.88,5.95-37.58-13.08-2.75-26.64-2.09-38.49,2.83-11.74,4.87-20.68,12.78-27.12,22.56,1.1.98,2.23,1.92,3.38,2.83,2.45-.13,4.89-.19,7.33-.19Zm-46.27-16.06c-.04,8.42-1.35,16.82-3.84,25.06,5.19-1.91,10.47-3.52,15.79-4.83-4.31-6.66-8.36-13.39-11.94-20.23Zm-1701.25,13.69c-1.01,1.43-2,2.91-2.98,4.43-1.24,1.95-2.45,3.96-3.63,6.04,3.55-.25,7.09-.4,10.61-.42-1.4-3.22-2.73-6.57-4-10.06Zm124.74-7.08c3.32,4.61,6.24,9.5,8.7,14.59,2.69-7.3,6.56-14.39,11.35-20.98-3.55.17-7.12.47-10.68.9-3.16,1.7-6.28,3.53-9.36,5.49Zm1724.05-10.08c4.5,4.18,8.51,8.84,11.89,13.92-.17-1.36-.33-2.71-.48-4.04-.29-2.46-.58-4.9-.9-7.28-.31-2.27-.71-4.9-1.26-7.81-3.18,1.57-6.27,3.32-9.25,5.22Zm-1957.18-38.66c4.31,17.6,9.91,36.06,16.86,52.18,3.59-1.38,7.19-2.72,10.79-4.03-.95-19.79.66-40.16,4.91-60.57,4.27-20.53,11.04-40.6,19.99-59.63-20.39,21.74-38.04,46.02-52.55,72.05Zm182.27,27.14c-1.31,8.27-3.78,16.34-7.3,24.02,9.12-5.19,18.6-9.55,28.32-13.03-6.55-4.82-13.68-8.56-21.02-10.99Zm1742.54,7.36c-.05,4.97-.25,9.9-.81,14.82,3.1-3.65,6.42-7.11,9.95-10.35-2.94-1.68-6-3.17-9.15-4.47Zm-1584.06,9.73c4.21,1.46,8.4,2.99,12.57,4.55-4.08-3.05-8.33-5.78-12.71-8.15.04,1.2.09,2.4.14,3.6Zm1532.53-88.88c-21.28,3.62-40.2,15.21-48.08,32.05-9.07,19.37-3.01,40.96,10.05,57.61,8.04-11.11,18.71-19.54,31.7-24.93,13.56-5.63,28.72-6.8,43.44-4.28-1.58-18.29-9.06-44.88-37.11-60.44Zm-1797.81-40.96c-23.03,40-34.72,85.38-33.67,128.7.72-.25,1.44-.51,2.16-.76,14.15-5,28.78-10.16,42.5-16.15,4.52-1.97,8.98-4.06,13.4-6.27-1.42-14.91-.1-30.32,6.37-42.07,5.1-9.26,12.75-15.32,22.73-18,.29-.08.58-.15.87-.22-2.3-.58-4.59-1.28-6.88-2.09-16.73-5.91-31.23-17.08-40.85-31.45-2.48-3.71-4.69-7.61-6.62-11.69Zm639.51,122.86c.22.51.44,1.03.66,1.55.27-.55.54-1.09.81-1.64-.49.03-.98.06-1.47.09Zm-429.1-7.05c9.97,1.43,19.8,3.55,29.5,6.15.34-1.67.67-3.34,1-5-6.08-1.41-12.25-2.18-18.41-2.27-3.71-.05-7.37.09-10.98.41-.37.24-.75.48-1.11.72Zm54.41-5.37c6.78,3.11,13.33,6.92,19.55,11.38,0-7.04-.72-13.93-2.13-20.54-5.69-.88-11.5-1.28-17.36-1.2-.06,3.46-.08,6.91-.06,10.35Zm-157.47-12.18c7.53,2.09,14.95,5.33,22.01,9.68,5.14,3.17,10,6.84,14.49,10.92.53-.13,1.07-.27,1.61-.4.04-.27.09-.54.13-.82,4.24-25.71,8.62-52.3,28.12-70.63,11.89-11.18,28.36-17,46.38-16.4.88.03,1.76.07,2.63.13-6.89-5.35-13.7-10.77-20.4-16.08-11.72-9.31-23.55-18.71-35.68-27.69-10.09,18.18-22.02,35.5-35.59,51.59-9.73,11.53-20.23,22.34-31.37,32.33,4.25,8.35,6.95,17.9,7.66,27.35Zm110.2-53.67c-13.44,0-25.54,4.45-34.25,12.64-15.06,14.15-19.5,36.35-23.18,58.38.97-.15,1.95-.28,2.93-.41,14.45-7.43,29.03-11.97,43.93-13.71,1.34-.78,2.71-1.51,4.08-2.21,11.19-5.68,23.22-9.59,35.58-11.61,2.08-10.76,4.18-21.6,6.38-32.46-9.72-6.36-21.5-10.17-33.41-10.57-.69-.02-1.38-.03-2.07-.03Zm1631.63,60.44c7.38,2.51,14.45,5.95,20.95,10.2,5.53-3.88,11.42-7.28,17.58-10.11-6.25-22.03-19.61-49.72-48.01-60.45-6.15-2.32-12.59-3.79-19.09-4.47,17.34,15.8,27.45,38.43,28.57,64.83Zm-1555.54-15.82c12.92,3.12,24.86,8.5,35.27,15.96,4.17,2.99,8.07,6.34,11.68,10.02.13-4.94.61-9.87,1.43-14.76-19.12-7.11-37.23-15.88-53.99-25.35,2.21,4.48,4.09,9.2,5.61,14.12Zm-254.04,24.17s0,0,0,0c0,0,0,0,.01-.01,0,0-.01,0-.01,0Zm581.21-25.85c4.44,6.96,8.58,14.24,12.38,21.8,4.77-.5,9.56-.75,14.35-.76,30.26-69.32,36.33-141.96,16.38-202.5-1.38-4.17-2.89-8.28-4.52-12.33-.68,2.22-1.43,4.41-2.25,6.57-9.36,24.74-25.41,47.58-46.74,66.7-.34,10.88-2.14,21.81-5.36,32.56,9.42,26.89,14.75,56.55,15.75,87.96Zm-262.42,3.8c23.22,7.59,47.75,12.42,72.87,12.74,11.7-24.78,18.32-51.91,19.99-79.65-11.2.2-22.74-.16-34.65-1.08-28.62,13.67-49.89,39.43-58.21,68Zm106.87-67.46c-1.5,27.64-7.62,54.75-18.46,79.81,5.8-.37,11.61-.99,17.44-1.89,24-3.7,47.38-13.37,67.73-27.51,0-.98,0-1.97,0-2.95-.11-11.91-1.08-23.9-2.52-35.86-2.48-5.07-5.27-9.97-8.31-14.64-3.4-1.25-6.83-2.37-10.28-3.37-14.55,3.31-29.73,5.45-45.6,6.41Zm-223.29,78.98c.55.12,1.11.24,1.66.36.05-.25.1-.51.15-.76-.6.13-1.21.26-1.81.4Zm-153.27-22.52c-8.8,7.21-17.96,13.92-27.41,20.1,4.37-1.7,8.9-2.99,13.57-3.85,5.94-1.09,12.03-1.38,18.16-.88-.74-5.28-2.22-10.53-4.32-15.36Zm-26.02-22.12c-1.82,0-3.68.25-5.56.76-6.25,1.68-10.86,5.35-14.09,11.23-4.2,7.63-5.51,17.75-5.11,28.09,15.29-8.7,29.82-18.8,43.39-30.09-1.1-1.3-2.26-2.5-3.48-3.59-4.76-4.26-9.83-6.4-15.15-6.4Zm1351.29-4.1c17.37,0,34.64,2.73,50.76,8.38,16.03,5.63,31.04,14.19,44.25,25.11,11.12-18.11,27.83-32.67,47.03-41.74-34.67-23.81-80.33-39.24-125.54-40.97-37.77-1.45-63.27,5.86-77.97,22.32-10.53,11.79-14.82,27.33-12.46,43.96,22.58-11.15,48.35-17.06,73.92-17.06Zm-1144.87-7.02c22.32,14.71,48.13,29,76.13,39.6,7.78-25.88,24.83-49.61,47.95-65.81-13.34-1.76-27.13-4.17-41.38-7.23-11.97,16.44-28.16,27.92-46.18,32.61-11.64,3.03-24.21,2.63-36.26-.81-.08.55-.17,1.09-.25,1.64Zm-2.61,38.95c1.48,0,2.96.03,4.45.08,2.3.08,4.58.23,6.84.45-2.84-7.01-6.56-13.45-11.13-19.07-.58,6.19-1.01,12.37-1.3,18.55.38,0,.77,0,1.15,0Zm1504.86-52.74c-.17,0-.34,0-.51,0-11.25.15-22.81,5.47-29.46,13.55-5.46,6.64-8.18,15.1-8.33,25.87-.02,1.79.02,3.57.12,5.34.91-3.7,2.2-7.37,3.89-10.99,6.89-14.72,19.88-26.46,37.05-33.68-.93-.06-1.85-.09-2.76-.09Zm-186.23,17.76c6.87,6.22,13.09,12.8,18.54,19.69,3.17-3.48,6.78-6.52,10.81-9.08,4.62-2.93,9.69-5.16,15.02-6.76-8.21-3.2-17.09-5.12-26.2-5.37-6.06-.17-12.16.36-18.17,1.51Zm-1001.6-8.06c7.74,7.02,15.04,14.75,21.85,23.12-1.62-15.86-4.45-31.13-8.44-45.66-3.73,7.71-8.2,15.25-13.41,22.54Zm-664.76,15.84c.41,2.19.85,4.43,1.31,6.71,19.73-32.3,44.23-61.67,72.74-86.62-3.17-14.09-3.65-29.38-1.35-45.1-10.21,1.73-20.29,4.26-30.1,7.58-5,28.23-10.47,57.17-20.34,84.63-3.87,10.77-10.22,25.06-22.26,32.79Zm158.05-11.49c3.63,1.64,7.11,3.93,10.36,6.84,1.65,1.47,3.21,3.09,4.69,4.83,25.3-23.05,46.84-50.35,63.32-80.31-10.22-7.18-20.67-13.94-31.44-19.98,7.11,10.49,9.8,23.94,7.44,38.2-3.31,19.99-15.83,37.21-32.67,44.95-6.78,3.11-14.11,4.94-21.7,5.46Zm466.3-15.57c3.86,8.29,6.99,16.98,9.23,25.88,4.18-4,8.15-8.21,11.88-12.63-5.71-4.47-11.62-8.53-17.72-12.14-1.16-.69-2.33-1.36-3.51-2.02.04.3.08.61.11.91Zm-642.8-56.03c-12.25,10.71-24.62,25.77-25.28,43.28-.37,9.71,5.05,20.36,13.48,26.5,2.91,2.12,8.26,5.13,14.54,4.49-1.57-9.45-2.39-15.89-2.59-17.58-4.21-18.4-4.24-37.72-.15-56.7Zm18.73-13.95c-7.96,21.71-10.03,45.61-4.86,67.86.06.25.1.51.13.77.43,3.65,1,7.87,1.72,12.53,5.67-6.04,9.32-14.74,11.8-21.64,8.53-23.74,13.72-49.03,18.24-74.01-9.38,4.08-18.43,8.92-27.04,14.48Zm353.25,69.97c9.93,3.01,20.28,3.44,29.79.96,14.1-3.67,25.76-11.86,34.7-22.48-2.89-.7-5.8-1.42-8.72-2.16-3.9-1-7.72-2.03-11.47-3.1-12.64,4.97-26.23,8.61-40.41,9.85-1.35,5.63-2.64,11.28-3.9,16.93Zm268.28-17.9c4.44,2.12,8.8,4.45,13.07,6.98,6.59,3.91,12.98,8.29,19.14,13.11,7.66-10.9,13.53-22.38,17.5-34.1-1.69-4.54-3.5-8.98-5.44-13.33-13.94,9.03-29.12,16.57-45.06,22.42.26,1.64.53,3.28.78,4.92Zm-531.44-28.52c2.29,6.67,5.34,12.9,9.14,18.58,16.77,25.07,50.14,36.39,74.39,25.25,12.48-5.73,22.18-19.28,24.7-34.52,2.19-13.24-1.28-25.32-9.54-33.15-21.91-20.79-60.79-7.62-89.6,14.65-2.05,1.58-4.08,3.19-6.09,4.82-1.02,1.45-2.01,2.91-3,4.38Zm233.73,27.7c1.71,1.92,3.58,3.76,5.61,5.52,3.19,2.77,6.61,5.19,10.17,7.26.72-3.54,1.51-7.07,2.35-10.6-5.98-.23-12.02-.94-18.13-2.18Zm-43.45-18.53c3.89,3.07,7.77,6.15,11.63,9.22,5.71,4.54,11.52,9.15,17.37,13.72-2.59-3.48-4.79-7.13-6.58-10.89-7.91-3.29-15.34-7.39-22.42-12.05Zm160.23,6.49c19.02,3.91,37.15,6.61,54.45,8.1,11.75-5.16,24.33-8.56,37.3-10.22-.62-12.86-2.27-25.74-4.96-38.45-13.94-6.57-28.54-12.02-43.36-16.79-4.71,5.03-9.72,10.02-15.06,14.97-4.77,4.43-11.09,9.95-18.69,15.79-2.02,9.21-5.29,18.19-9.71,26.6Zm110.69-3.31c11.88,0,23.91,1.38,35.78,4.11-.27-.28-.53-.55-.8-.83-12.76-13.06-27.38-23.65-43.15-32.47,1.61,9.72,2.67,19.5,3.15,29.27,1.67-.05,3.34-.08,5.01-.08Zm-237.83-2.02c1.89.67,3.82,1.28,5.78,1.84,8.87,2.53,17.7,3.7,26.36,3.78.1-.36.21-.72.31-1.08.9-3.1,1.84-6.17,2.84-9.23.33-1.23.66-2.46,1-3.68-13.5-6.41-25.34-13.57-35.53-21.47-1.42,3.67-2.4,7.52-2.85,11.55-.69,6.15.05,12.34,2.09,18.29Zm48.73-.74c-.48,1.81-.96,3.62-1.43,5.43,4.76-.62,9.46-1.53,14.06-2.69-4.12-1.48-8.12-3.02-12.01-4.61-.21.62-.42,1.24-.62,1.87Zm177.4-44.01c20.77,10.42,40.27,23.44,56.71,40.26,2.66,2.72,5.23,5.59,7.71,8.6.33-.1.66-.2.99-.3-.67-3.94-1.36-7.86-2.04-11.77-5.03-28.76-10.2-58.39-10.19-88.25-18.49-12.64-39.5-23.14-62.57-31.32-2.71,9.01-6.37,17.98-10.98,26.88,9,17.87,15.8,36.67,20.38,55.9Zm-122.13,44.83c2.99.74,5.96,1.45,8.91,2.13,1.9-3.31,3.59-6.75,5.06-10.27-4.42,2.79-9.09,5.54-13.97,8.14Zm189.52-85.75c1.01,25.23,5.44,50.6,9.76,75.3.56,3.18,1.11,6.37,1.67,9.58,14.78-5.62,28.63-12.73,41.26-21.09-5.09-9.7-10.85-18.86-17.26-27.39-10.04-13.38-21.93-25.55-35.43-36.4Zm-239.33,69.92c9.03,3.72,18.77,7.14,29.21,10.26,15.47-6.61,29.33-15.3,40.67-23.65,1.08-6.49,1.46-12.98,1.1-19.23-.32-5.66-1.15-11.37-2.45-17.08-12.39-2.98-25.01-5.44-37.63-6.33-12.32,16.81-22.79,35.68-30.89,56.02Zm-106.98-19.19c11.65,10.88,23.61,20.6,36.85,27.81-.51-4.21-.53-8.46-.05-12.72.79-7.05,2.74-13.59,5.58-19.59-12.17-11.61-21.2-24.59-27.04-38.91-3.98,14.75-9.12,29.27-15.34,43.41Zm-6.44,13.73c1.44,1.06,2.88,2.12,4.31,3.2-1.37-1.2-2.73-2.42-4.09-3.64-.07.15-.15.3-.22.45Zm66.9-21.02c9.22,7.39,20.07,14.13,32.52,20.21,3.72-12.5,7.85-24.89,12.51-37.08,1.5-3.93,3.07-7.83,4.72-11.7-1.66.26-3.31.56-4.96.91-16.65,3.48-34.16,13.36-44.78,27.66Zm-234.22-21.52c-2.17,12.15-2.5,24.01-1.04,35.13,7.65-10.3,16.03-20.02,25.05-29.02,2.22-2.22,4.48-4.4,6.78-6.55-10.25-.67-20.56-.52-30.78.44Zm63.54-9.77c4.77,1.09,9.5,2.36,14.19,3.81,28.36,8.77,53.91,23.38,78.03,40.2.37-.75.73-1.5,1.09-2.25-5.09-4.97-10.08-10.03-15.03-15.06-16-16.24-32.43-32.92-51.13-45.13-9.46,5.74-18.52,11.88-27.15,18.43Zm456.43-30.06c18.1,13.23,33.71,28.56,46.72,45.89,6.48,8.64,12.34,17.86,17.55,27.59,2.13-1.64,4.22-3.32,6.26-5.04-.13-5.24-.66-10.45-1.58-15.61-5.44-30.49-24.64-57.76-54.06-76.8-3.69-2.39-7.48-4.61-11.35-6.66-1.78,8.31-2.92,17.27-3.39,26.85-.06,1.26-.11,2.52-.15,3.78Zm-155.66,41.97c.68,4.13,1.14,8.27,1.38,12.42.15,2.62.2,5.26.14,7.89,2.52-2.17,4.77-4.21,6.75-6.04,3.33-3.09,6.52-6.19,9.59-9.3-5.95-1.73-11.9-3.38-17.85-4.97Zm-260.13-38.1c17.43,12.41,32.71,27.92,47.62,43.05,3.75,3.81,7.47,7.58,11.19,11.28,5.78-13.76,10.51-27.94,14.09-42.4,2.11-8.53,3.62-17.27,4.53-26.05-.17-5.72.13-11.52.89-17.36-28.11,7.9-54.36,18.45-78.31,31.48Zm423.1-48.32c5.21,2.63,10.28,5.54,15.2,8.72,32.72,21.17,54.11,51.75,60.24,86.1.35,1.97.65,3.94.9,5.92,15.31-15.66,27.18-33.63,34.52-53.04,2.7-7.12,4.53-14.71,5.51-22.39-17.38-31.88-42.9-58.23-72.34-75.73-10.22,4.03-19.85,10.85-27.47,20-7.07,8.48-12.6,18.65-16.56,30.42Zm-477.92,85.97c-4.55,3.91-8.95,7.95-13.21,12.11,6.96-3.01,13.9-5.3,20.61-6.77,3.4-.75,6.73-1.27,9.97-1.59-5.73-1.53-11.53-2.77-17.37-3.74Zm146.29-51.42c.27,7.69,1.54,15.39,3.95,23.01,4.53,14.28,12.57,27.22,24.07,38.78,13.07-16.98,33.63-27.98,52.47-31.92,4.83-1.01,9.7-1.68,14.57-2.07,7.15-14.83,15.32-29.06,24.32-42.42-5.41-5.99-11.36-11.76-17.81-17.24-1.08-.91-2.16-1.82-3.26-2.71-33.86,1.21-66.22,5.6-96.59,12.97-.28,1.44-.52,2.89-.74,4.34-.09,5.77-.43,11.54-.99,17.27Zm211.57,50.06c9.73,3.29,19.46,6.93,29.03,11.04-3.29-11.44-7.44-22.69-12.42-33.61-4.85,7.59-10.39,15.12-16.61,22.58Zm-460.89-19.63c-8.8,7.69-16.35,16.82-22.49,26.88,6.25-3.16,12.67-6,19.2-8.51,1.07-6.1,2.16-12.23,3.29-18.38Zm414.44,6.03c2.15.55,4.29,1.12,6.39,1.68,8.39,2.24,16.97,4.64,25.62,7.28,9.46-10.81,17.35-21.74,23.66-32.74-4.38-8.06-9.23-15.89-14.57-23.44-3.43-4.86-7.06-9.6-10.86-14.2-15.8,7.21-30.82,16.99-44.66,28.9,6.29,10.55,11.13,21.46,14.42,32.53Zm-397.9-17.93c-1.68,8.38-3.21,16.78-4.7,25.13,9.91-2.95,20.03-5.17,30.27-6.64.44-1.73.91-3.47,1.41-5.21,2.74-9.42,6.36-18.61,10.83-27.45-13.33,2.62-26.2,7.37-37.81,14.18Zm55.4,16.35c8.99,0,17.98.58,26.91,1.76,9.99-8.24,20.58-15.92,31.73-23.03-18.08-8.89-38.68-12.61-59.04-11.43-6.19,10.5-11.1,21.64-14.49,33.23,4.95-.35,9.92-.53,14.88-.53Zm303.61-6.21c7.69.94,15.29,2.31,22.7,3.92-2.4-6.35-5.38-12.65-8.89-18.83-4.78,4.71-9.39,9.69-13.81,14.91Zm2.59-31.92c-5.12,7.77-9.89,15.75-14.29,23.86,1.93-2.31,3.89-4.59,5.89-6.82,3.84-4.28,7.79-8.38,11.85-12.29-1.12-1.59-2.27-3.17-3.46-4.74Zm-297.06-8.9c19.73.32,38.83,4.84,56.01,13.36,2.52,1.25,5,2.58,7.43,3.97,27.64-15.83,58.33-28.36,91.44-37.37-.8-12.92-2.94-25.45-6.4-37.02-1.12-3.75-2.47-7.69-4.1-11.7-14.21-.5-28.32.61-41.99,3.42-41.16,8.48-78.16,32.81-102.4,65.33Zm419.23-15.62c.96.33,1.91.67,2.86,1.01,20.86,7.46,39.87,16.62,56.95,27.44.71-9.77,2.08-18.96,4.12-27.53-19.92-8.28-41.39-12.34-62.36-11.81-.37,3.64-.89,7.28-1.57,10.89Zm-447.87-50.49c-7.27,10.39-13.41,21.63-18.08,33.29-5.88,14.69-10.3,30.03-13.95,45.6,13.29-6.22,27.77-10.27,42.93-11.94,8.68-13.4,19.39-25.81,31.89-36.86,24.53-21.69,54.07-36.57,85.42-43.02,12.34-2.54,25.07-3.83,37.96-3.87-6.11-10.66-14.49-20.95-25.95-28.83-47.91,4.85-96.05,20.58-140.22,45.63Zm410.79,54.24c1.27,1.71,2.52,3.43,3.75,5.16,3.81,5.39,7.38,10.9,10.73,16.54,2.36-5.37,4.35-10.76,5.95-16.15-6.66-2.04-13.47-3.89-20.43-5.56Zm-76.67,8.62c1.95,2.42,3.81,4.88,5.6,7.35,10.53-8.91,21.66-16.61,33.25-23-8.01-1.08-16.17-1.94-24.47-2.57-5.02,5.87-9.81,11.96-14.38,18.22Zm-18.07-19.52c2.96,2.8,5.8,5.64,8.52,8.54,2.06-2.79,4.17-5.54,6.31-8.23-4.9-.18-9.84-.28-14.82-.31Zm106.74-.48c3.92,1.03,7.8,2.13,11.63,3.28.31-1.82.58-3.64.8-5.47-4.19.54-8.34,1.27-12.44,2.19Zm169.09-53.74c3.76,2.65,7.47,5.45,11.12,8.39,15.98,12.91,30.13,28.21,41.89,45.12-1.12-8.46-3.34-16.51-6.65-23.62-6.3-13.52-16.24-22.98-28.74-27.35-5.59-1.96-11.56-2.77-17.62-2.54Zm-370.38,16.08c-7.89,11.16-14.43,23.38-18.79,36.12,23.78-5.35,48.7-8.95,74.49-10.72-17.32-11.21-36.22-19.76-55.71-25.4Zm231.54,20.36c21.15,0,42.62,4.21,62.68,12.33,4.48-12.86,10.69-24.08,18.61-33.58,6.58-7.89,14.44-14.34,22.95-19.15-21.2-9.98-43.96-15.46-66.82-15.35-17.54.08-34.41,3.22-50.44,8.82,3.64,7.94,6.34,16.53,8.02,25.6,1.3,7,1.97,14.15,2.04,21.35.98-.02,1.97-.03,2.95-.03Zm-76.62-9.11c6.98,6.34,13.58,13,19.79,19.94,6.65-2.55,13.4-4.69,20.24-6.41,6.43-1.61,12.99-2.78,19.63-3.51-.05-15.2-3.19-29.88-9.13-42.65-18.12,8.06-35.05,19.25-50.53,32.62Zm-16.12,15.24c4.54.46,9.04.99,13.52,1.58-2.55-2.48-5.15-4.91-7.8-7.29-1.93,1.87-3.84,3.77-5.72,5.71Zm-46.93-2.35c9.69,0,19.31.29,28.81.88,4.19-4.7,8.5-9.22,12.9-13.53-27.66-22.27-60.19-39.5-95.15-50.43-1.01.72-2,1.46-2.99,2.21-9.18,6.95-18.11,15.35-26.15,24.79,24.9,7.92,48.51,20.31,69.12,36.27,1.91-.05,3.83-.09,5.76-.12,2.57-.04,5.15-.06,7.71-.06Zm-124.94-30.82c2.75,7.84,4.87,16.02,6.41,24.44,3.36-7.31,7.39-14.49,12-21.43-6.11-1.29-12.26-2.3-18.41-3.01Zm86.83-41.97c12.73,4.49,25.15,9.8,37.15,15.89,19.14,9.72,36.96,21.36,53.09,34.57,17.22-15.11,35.49-27.01,54.41-35.51-2.23-3.23-4.68-6.26-7.35-9.06-22.56-23.75-52.92-26.84-74.41-25.24-21.21,1.58-43.26,8.44-62.89,19.35Zm-92.95,27.23c11.2.85,22.45,2.63,33.59,5.32,7.98-10.01,17.16-19.32,27.22-27.56-20.06-5-40.76-7.95-61.68-8.63-6.96-.22-13.96-.2-20.97.05,8.95,8.73,16.2,19.2,21.85,30.81Zm-85.91-43.04c-18.4,0-37.58,6.36-55.9,18.81-5.19,3.52-10.2,7.45-15.01,11.72,7.95-3.59,16.01-6.9,24.19-9.95,22.1-8.23,44.39-14.23,66.72-17.96-6.51-1.75-13.2-2.62-20-2.62Z"/>
      <path class="cls-1" d="m6299.55,447.35l-50.91-27.93c-.58-.32-1.3.1-1.3.77v51.96c0,.64.67,1.07,1.25.79l50.91-24.03c.65-.31.67-1.21.05-1.56Z"/>
      <circle class="cls-1" cx="21.41" cy="446.17" r="21.41" transform="translate(-419.7 375.81) rotate(-78.19)"/>
    </g>
  </g>
</svg>